<svg xmlns="http://www.w3.org/2000/svg" width="100.93" height="19.678" viewBox="0 0 100.93 19.678"><defs><style>.a{fill:#204867;}</style></defs><g transform="translate(74.007 4.315)"><g transform="translate(3.78)"><path class="a" d="M437.545,23.036l-.042-.126-.021-.084c0-.021,0-.021-.021-.042,0-.021,0-.021-.021-.042,0-.021-.021-.042-.021-.063s-.021-.042-.021-.063-.021-.042-.021-.063h0c-.021-.042-.021-.084-.042-.126a.073.073,0,0,0-.021-.042.021.021,0,0,0-.021-.021v-.021c0-.021,0-.021-.021-.021,0-.021,0-.021-.021-.021v-.063c0-.021-.021-.021-.021-.042s-.021-.042-.021-.063-.021-.021-.021-.042V22.07c0-.021-.021-.021-.021-.042-.021-.021-.021-.042-.042-.063s-.021-.042-.042-.063h0c0-.021-.021-.021-.021-.042s-.021-.021-.021-.042-.021-.021-.021-.042v-.021c0-.021-.021-.021-.021-.042s-.021-.021-.021-.042c-.042-.063-.084-.105-.126-.168,0-.021-.021-.021-.021-.042h0a.021.021,0,0,0-.021-.021l-.021-.021h0l-.021-.021v-.042h0l-.021-.021h0l-.021-.021v-.021h0l-.021-.021-.042-.042-.021-.021h0l-.021-.021-.021-.021h0c-.021-.021-.042-.021-.042-.042l-.021-.021-.042-.042h0l-.042-.042h-.021l-.042-.042-.021-.021h0c-.021-.021-.042-.021-.042-.042h0c-.021,0-.021-.021-.042-.021l-.021-.021-.021-.021c-.021-.021-.042-.021-.063-.042h0l-.042-.021c-.021,0-.021-.021-.042-.021s-.021-.021-.042-.021a.021.021,0,0,1-.021-.021c-.021,0-.021,0-.042-.021.021,0,.021,0,.042.021-.021,0-.021,0-.042-.021h-.021c-.021,0-.021-.021-.042-.021h-.021c-.021,0-.021-.021-.042-.021h-.021c-.021,0-.021,0-.042-.021h-.126c-.042,0-.063-.021-.105-.021h-.525a1.291,1.291,0,0,0-.294.021h-.168c-.021,0-.021,0-.042.021h-.021c-.021,0-.021,0-.042.021-.021,0-.042.021-.084.021h-.021a1.085,1.085,0,0,0-.4.252,1.41,1.41,0,0,0-.336.735l-.021-.021a2.975,2.975,0,0,0-.462-.378c-.042-.021-.084-.063-.126-.084-.021,0-.021-.021-.042-.021l-.021-.021h0c-.021,0-.021-.021-.042-.021l-.126-.063c-.021,0-.021-.021-.042-.021-.063-.021-.126-.063-.189-.084-.021,0-.021-.021-.042-.021s-.042-.021-.063-.021a.126.126,0,0,0-.084-.021c-.021,0-.021,0-.042-.021-.021,0-.042-.021-.063-.021s-.042-.021-.063-.021a.073.073,0,0,1-.042-.021.389.389,0,0,0-.147-.042c-.063-.021-.147-.042-.21-.063h0c-.042,0-.063-.021-.105-.021a.077.077,0,0,1-.063-.021c-.063,0-.1-.021-.168-.021h-.021a.157.157,0,0,1-.105-.021,5.547,5.547,0,0,0-.609-.042h-.378a.267.267,0,0,0-.126.021c-.084,0-.147.021-.231.021a.126.126,0,0,0-.084.021c-.084.021-.168.021-.231.042-.021,0-.042.021-.084.021-.042.021-.105.021-.147.042a.5.5,0,0,1-.168.042c-.063.021-.126.042-.21.063-.021,0-.042.021-.063.021s-.042.021-.063.021a1.022,1.022,0,0,0-.147.063,2.3,2.3,0,0,0-.315.168,4.257,4.257,0,0,0-.924.693l-.063.063c-.021.042-.063.063-.084.105s-.063.063-.084.105a5.017,5.017,0,0,0-.924,1.722,7.125,7.125,0,0,0-.315,2.184,4.231,4.231,0,0,0,.021.525h0a.461.461,0,0,0,.021.168v.105c.021.147.042.294.063.462h0c0,.042.021.084.021.126h0c.021.063.021.126.042.21.021.105.063.231.084.336l.063.189c.021.042.021.084.042.126.021.063.042.105.063.168s.063.147.084.21c.084.189.189.378.294.567.042.063.084.147.126.21.021.042.042.063.063.105a1.158,1.158,0,0,0,.147.189h0a3.142,3.142,0,0,0,.231.273h0a3.966,3.966,0,0,0,.42.42.29.29,0,0,0,.084.063,2.865,2.865,0,0,0,.441.315c.021.021.063.042.084.063l.378.189c.042.021.063.042.1.042.021,0,.042.021.063.021s.042.021.063.021.042.021.063.021c.042.021.084.021.1.042.042.021.084.021.1.042.063.021.1.042.168.063s.147.042.21.063a.266.266,0,0,0,.126.021c.042,0,.084.021.126.021h0c.042,0,.084.021.126.021h.063c.042,0,.084.021.126.021h.042c.063,0,.147.021.21.021h.63a.581.581,0,0,0,.189-.021c.063,0,.105-.021.168-.021a.614.614,0,0,0,.189-.042c.084-.021.189-.042.273-.063.021,0,.042-.021.063-.021.042-.021.084-.021.126-.042s.084-.021.105-.042c.063-.021.1-.042.168-.063a.073.073,0,0,0,.042-.021c.021-.021.042-.021.084-.042h0c.021-.021.042-.021.063-.042h0a.074.074,0,0,0,.042-.021l.126-.063c.063-.042.1-.063.168-.1a.021.021,0,0,0,.021-.021c.021,0,.021-.021.042-.021.021-.021.063-.042.084-.063a.289.289,0,0,1,.084-.063h0c.021-.021.042-.042.063-.042s.021-.021.042-.021c.021-.021.042-.042.063-.042h0l.021-.021.021-.021.021-.021h0a.556.556,0,0,1,.126-.105,4.222,4.222,0,0,1-.252,1.3,2.717,2.717,0,0,1-.651.924,3.157,3.157,0,0,1-.924.546,3.35,3.35,0,0,1-1.113.189,3.027,3.027,0,0,1-.9-.126,3.431,3.431,0,0,1-.777-.336,2.852,2.852,0,0,0-1.134-.483c-.462,0-.693.4-1.281,1.386l-.021.042v.063a.159.159,0,0,0,.084.147c.021.021.063.084.126.147a6.735,6.735,0,0,0,.525.462,5.979,5.979,0,0,0,.882.546,5.264,5.264,0,0,0,1.2.483,5.594,5.594,0,0,0,1.512.21h0a5.979,5.979,0,0,0,2.268-.441,5.014,5.014,0,0,0,1.743-1.176,5.658,5.658,0,0,0,.63-.777h0a.021.021,0,0,1,.021-.021,5.458,5.458,0,0,0,.777-1.89h0v-.126c0-.042.021-.063.021-.105v-.168c.021-.168.021-.357.042-.546v-7.35a.231.231,0,0,1,.273-.273ZM433.429,26.1v.336h0v.21a.126.126,0,0,1-.021.084h0a.126.126,0,0,1-.021.084.077.077,0,0,1-.021.063c0,.042-.021.084-.021.126v.042c0,.021,0,.042-.021.042,0,.021,0,.021-.021.042,0,.021-.021.042-.021.063h0a3.264,3.264,0,0,1-.441.945,2.418,2.418,0,0,1-.294.357h0c-.042.042-.084.063-.105.105h0l-.063.063h0a.458.458,0,0,0-.1.084h0c-.021.021-.042.021-.063.042s-.042.021-.063.042a1.782,1.782,0,0,1-.462.189,2.289,2.289,0,0,1-.546.063,2.115,2.115,0,0,1-.525-.063c-.084-.021-.147-.042-.231-.063h0c-.063-.021-.105-.042-.168-.063-.021-.021-.042-.021-.063-.042s-.063-.021-.084-.042h0c-.042-.021-.1-.063-.147-.084-.021-.021-.042-.021-.042-.042a3.65,3.65,0,0,1-.315-.273l-.084-.084a.456.456,0,0,1-.084-.105c0-.021-.021-.021-.021-.042-.021-.021-.021-.042-.042-.063s-.021-.042-.042-.063h0a4129988396337.408,4129988396337.408,0,0,1-.084-.168,1.448,1.448,0,0,1-.147-.315c-.021-.042-.021-.063-.042-.105s-.021-.063-.042-.105a.388.388,0,0,1-.042-.147c0-.021,0-.042-.021-.042,0-.021-.021-.042-.021-.063s-.021-.063-.021-.084h0c-.021-.063-.021-.147-.042-.231a.126.126,0,0,0-.021-.084c0-.063-.021-.105-.021-.168a.461.461,0,0,0-.021-.168h0V26.1a1.8,1.8,0,0,1,.021-.336v-.084a52050.845,52050.845,0,0,0,.042-.252.613.613,0,0,1,.042-.189.077.077,0,0,1,.021-.063,1.745,1.745,0,0,1,.084-.315c0-.042.021-.063.042-.105a1.447,1.447,0,0,1,.063-.168c0-.021.021-.021.021-.042s.021-.021.021-.042.021-.042.021-.063h0c0-.021.021-.021.021-.042a4.471,4.471,0,0,1,.336-.525l.063-.063c.021-.021.042-.063.084-.084.063-.063.126-.105.189-.168.042-.042.084-.063.126-.105h0c.021-.021.042-.021.063-.042a.021.021,0,0,0,.021-.021l.126-.063c.021,0,.042-.021.063-.021h0a.073.073,0,0,0,.042-.021c.021,0,.042-.021.063-.021s.042-.021.063-.021a.074.074,0,0,0,.042-.021h0a.073.073,0,0,0,.042-.021.077.077,0,0,0,.063-.021h0c.021,0,.042,0,.042-.021h0c.021,0,.042,0,.042-.021h0a.077.077,0,0,0,.063-.021h.063a.126.126,0,0,0,.084-.021h.294a2.071,2.071,0,0,1,.5.063.3.3,0,0,1,.126.042c.042.021.084.021.126.042s.063.021.1.042h0c.021,0,.021.021.042.021s.021,0,.042.021.063.021.084.042c.042.021.063.042.1.063.021.021.042.021.063.042s.042.021.063.042.063.042.084.063.063.042.084.084l.042.042.042.042.042.042.042.042.042.042h0a.917.917,0,0,1,.126.147h0c.021.042.042.063.063.105h0c.042.063.063.105.105.168h0a.16.16,0,0,1,.042.084c.021.021.021.063.042.105l.063.126a.3.3,0,0,1,.042.147c0,.021.021.042.021.063s.021.042.021.084c0,.021.021.042.021.063h0c0,.021.021.042.021.063h0a.077.077,0,0,0,.021.063v.021a.159.159,0,0,0,.021.084.126.126,0,0,0,.021.084h0v.084c0,.042.021.105.021.147a.266.266,0,0,0,.021.126V26a.189.189,0,0,0-.021.1Z" transform="translate(-414.402 -20.589)"/><path class="a" d="M380.921,29.083h-1.05a.126.126,0,0,1-.084-.021h-.063a.045.045,0,0,1-.042-.042c-.021-.021-.021-.042-.042-.063h0a.266.266,0,0,1-.021-.126V24.82a3.41,3.41,0,0,0-.021-.441h0a5.73,5.73,0,0,0-.189-1.281,3.284,3.284,0,0,0-.756-1.344,3.787,3.787,0,0,0-1.407-.9,3.247,3.247,0,0,0-.483-.147,4.917,4.917,0,0,0-.63-.105h0a5.515,5.515,0,0,0-1.659.021h0A5.956,5.956,0,0,0,373.13,21a5.558,5.558,0,0,0-1.008.567,8.052,8.052,0,0,0-.714.609c-.168.189-.315.336-.42.483-.042.063-.084.105-.1.147a.191.191,0,0,0-.063.147v.042l.021.021c.651.777.924,1.113,1.344,1.05a2.566,2.566,0,0,0,.966-.567,5.22,5.22,0,0,1,.651-.4,2.241,2.241,0,0,1,.4-.147h0a.065.065,0,0,0,.042-.021c.105-.021.231-.063.336-.084a.126.126,0,0,0,.084-.021,2.564,2.564,0,0,1,1.3.126h0a1.2,1.2,0,0,1,.147.084h0a1.024,1.024,0,0,1,.273.21h0c.063.084.105.168.168.252,0,.021.021.042.021.063a3.894,3.894,0,0,1,.147,1.05h-.147c-.273,0-.609.021-1.029.042-.4.021-.84.084-1.281.147a8.179,8.179,0,0,0-1.365.357,4.6,4.6,0,0,0-1.239.63,2.715,2.715,0,0,0-.9.987A2.824,2.824,0,0,0,370.4,28.2h0a3.3,3.3,0,0,0,.294,1.407,3.244,3.244,0,0,0,.8,1.05,3.615,3.615,0,0,0,1.155.63,4.094,4.094,0,0,0,1.344.21,3.66,3.66,0,0,0,1.239-.189,3.312,3.312,0,0,0,.9-.462,3.692,3.692,0,0,0,.588-.546,1.336,1.336,0,0,0,.336.819,1,1,0,0,0,.4.252h.021a.4.4,0,0,0,.168.042.077.077,0,0,1,.063.021h.021c.042,0,.063.021.105.021h.042c.084,0,.189.021.294.021h.525c.021,0,.042,0,.042-.021h.021c.042,0,.063-.021.1-.021h.105c.021,0,.021,0,.042-.021h.021c.021,0,.021,0,.042-.021.021,0,.021,0,.042-.021.021,0,.021,0,.042-.021h.021c.021,0,.021,0,.042-.021-.021,0-.021,0-.042.021.021,0,.021,0,.042-.021a.021.021,0,0,0,.021-.021c.021,0,.021-.021.042-.021s.021-.021.042-.021l.042-.021c.021,0,.042-.021.063-.042a.021.021,0,0,0,.021-.021l.021-.021a.073.073,0,0,1,.042-.021h0c.021-.021.042-.021.042-.042h.021c.021-.021.042-.021.063-.042s.063-.042.084-.063a.458.458,0,0,1,.1-.084h0l.021-.021.021-.021h0l.042-.042a.021.021,0,0,1,.021-.021l.042-.042h0l.021-.021h0l.021-.021h0l.021-.021.042-.042h0a.021.021,0,0,1,.021-.021h0a.021.021,0,0,1,.021-.021c0-.021.021-.021.021-.042h0c.021-.021.021-.042.042-.042.021-.021.021-.042.042-.063.021-.042.063-.084.084-.126.021-.021.021-.042.042-.063h0v-.021a3.781,3.781,0,0,0,.441-.966l.126-.21Zm-4.1-2.31a2.625,2.625,0,0,1-.168.882,1.023,1.023,0,0,1-.063.147h0a3.016,3.016,0,0,1-.4.651,2.227,2.227,0,0,1-.672.588,1.932,1.932,0,0,1-.84.231,1.7,1.7,0,0,1-.777-.168,1.212,1.212,0,0,1-.441-.42,1.018,1.018,0,0,1-.147-.546,1.079,1.079,0,0,1,.126-.525c.021-.021.042-.063.063-.084a1.5,1.5,0,0,1,.525-.42,3.749,3.749,0,0,1,.777-.252,6.858,6.858,0,0,1,.882-.126c.273-.021.525-.021.756-.021h.357v.063Z" transform="translate(-370.4 -20.545)"/></g><path class="a" d="M355.34,60.368a1.47,1.47,0,1,1-1.47-1.47,1.474,1.474,0,0,1,1.47,1.47" transform="translate(-352.4 -50.843)"/></g><path class="a" d="M246.277,26.1v.126a2.806,2.806,0,0,0,.252,1.218,2.526,2.526,0,0,0,.651.924,2.7,2.7,0,0,0,.945.567,3.35,3.35,0,0,0,1.113.189,3.276,3.276,0,0,0,.924-.126,3.054,3.054,0,0,0,.777-.336,2.909,2.909,0,0,1,1.155-.483c.462,0,.714.42,1.3,1.407l.021.042v.042a.213.213,0,0,1-.084.147l-.147.147a4.715,4.715,0,0,1-.546.462,7.218,7.218,0,0,1-.882.567,5.463,5.463,0,0,1-1.218.462,5.782,5.782,0,0,1-1.533.189h0a6.281,6.281,0,0,1-2.31-.42,4.91,4.91,0,0,1-1.764-1.176A5.674,5.674,0,0,1,243.8,28.3a6.109,6.109,0,0,1-.357-1.386c0-.063-.021-.126-.021-.189s-.021-.126-.021-.189h0V26.16h0v-.378a.409.409,0,0,1,.021-.168c0-.063.021-.126.021-.189a6.078,6.078,0,0,1,.336-1.386,5.216,5.216,0,0,1,1.134-1.743,5.1,5.1,0,0,1,1.764-1.176,6.2,6.2,0,0,1,2.31-.42,5.782,5.782,0,0,1,1.533.189,6.729,6.729,0,0,1,1.218.462,5.36,5.36,0,0,1,.882.567,4.717,4.717,0,0,1,.546.462l.147.147a.213.213,0,0,1,.084.147v.042l-.021.042c-.588,1.008-.84,1.407-1.3,1.407a1.178,1.178,0,0,1-.483-.126c-.189-.084-.4-.21-.672-.357a3.642,3.642,0,0,0-.8-.336,3.276,3.276,0,0,0-.924-.126,3.35,3.35,0,0,0-1.113.189,2.705,2.705,0,0,0-.945.567,2.458,2.458,0,0,0-.651.924,3.572,3.572,0,0,0-.21,1.2" transform="translate(-192.284 -16.353)"/><path class="a" d="M125.652,24.134a5.018,5.018,0,0,0-.924-1.722,4.2,4.2,0,0,0-1.47-1.113,4.639,4.639,0,0,0-1.2-.357,5.163,5.163,0,0,0-.588-.042h-.147a4.621,4.621,0,0,0-1.281.168,3.717,3.717,0,0,0-.924.4h0a1.876,1.876,0,0,0-.672.609V22.1a1.336,1.336,0,0,0-.336-.819,1,1,0,0,0-.4-.252h-.021c-.021,0-.042-.021-.084-.021-.021,0-.021,0-.042-.021h-.021c-.021,0-.021,0-.042-.021h-.168c-.084,0-.189-.021-.294-.021h-.483c-.021,0-.042,0-.042.021H116.5a.91.91,0,0,1-.105.021h-.147c-.021,0-.021,0-.021.021-.021,0-.021,0-.042.021-.021,0-.021,0-.042.021h-.021c-.021,0-.021,0-.042.021.021,0,.021,0,.042-.021-.021,0-.021,0-.042.021a.021.021,0,0,0-.021.021c-.021,0-.021.021-.042.021s-.021.021-.042.021l-.042.021h0c-.021.021-.042.021-.063.042l-.021.021-.021.021c-.021,0-.021.021-.042.021h0a.045.045,0,0,0-.042.042h0l-.021.021c-.021,0-.021.021-.042.042h-.021l-.042.042h0c-.021,0-.021.021-.042.042l-.021.021c-.021.021-.042.021-.042.042h0l-.021.021-.021.021h0l-.042.042-.021.021-.042.042h0l-.021.021h0l-.021.021h0l-.021.021-.042.042h0a.021.021,0,0,1-.021.021h0a.021.021,0,0,1-.021.021c0,.021-.021.021-.021.042h0l-.042.042c-.021.021-.021.042-.042.063-.021.042-.063.084-.084.126a1667.374,1667.374,0,0,0-.168.252c0,.021-.021.021-.021.042h0v.021c0,.021-.021.021-.021.042-.021.042-.042.063-.042.105v.021c-.063.147-.126.315-.189.483,0,.021-.021.063-.021.084l-.063.189v.021h1.134c.021,0,.021,0,.042.021h.021a.021.021,0,0,1,.021.021h0a.7.7,0,0,1,.063.126h0v.042h0v.021h0V36.189h1.344a1.289,1.289,0,0,0,1.47-1.407V30.707a1.2,1.2,0,0,0,.168.147,3.556,3.556,0,0,0,.588.42,3.89,3.89,0,0,0,.84.336,4.587,4.587,0,0,0,3.024-.252,4.352,4.352,0,0,0,1.512-1.113,5.559,5.559,0,0,0,1.008-1.722,6.687,6.687,0,0,0,.357-2.226,15.117,15.117,0,0,0-.441-2.163m-2.667,3.507a2.655,2.655,0,0,1-.525.924,2,2,0,0,1-.756.567,2.247,2.247,0,0,1-.9.189,1.941,1.941,0,0,1-1.008-.252,2.126,2.126,0,0,1-.714-.651,3.265,3.265,0,0,1-.441-.945,4.734,4.734,0,0,1-.126-.756.581.581,0,0,0-.021-.189v-.294A5.128,5.128,0,0,1,118.679,25a2.6,2.6,0,0,1,.525-.924,1.831,1.831,0,0,1,.756-.525,2.441,2.441,0,0,1,.882-.168,2.075,2.075,0,0,1,.945.21,1.191,1.191,0,0,1,.273.168,2.359,2.359,0,0,1,.819,1.029,4.074,4.074,0,0,1,.315,1.6,3.45,3.45,0,0,1-.21,1.26" transform="translate(-90.454 -16.511)"/><path class="a" d="M11.277,24.134a5.019,5.019,0,0,0-.924-1.722A4.2,4.2,0,0,0,8.883,21.3a4.639,4.639,0,0,0-1.2-.357A5.163,5.163,0,0,0,7.1,20.9H6.951a4.621,4.621,0,0,0-1.281.168,3.717,3.717,0,0,0-.924.4h0a1.876,1.876,0,0,0-.672.609V22.1a1.336,1.336,0,0,0-.336-.819,1,1,0,0,0-.4-.252H3.318c-.021,0-.042-.021-.063-.021s-.021,0-.042-.021H3.192c-.021,0-.021,0-.042-.021H2.982c-.084,0-.189-.021-.294-.021H2.205c-.021,0-.042,0-.042.021H2.142a.91.91,0,0,1-.105.021H1.89a.021.021,0,0,0-.021.021c-.021,0-.021,0-.042.021-.021,0-.021,0-.042.021H1.764c-.021,0-.021,0-.042.021.021,0,.021,0,.042-.021-.021,0-.021,0-.042.021a.021.021,0,0,0-.021.021c-.021,0-.021.021-.042.021s-.021.021-.042.021l-.042.021h0c-.021.021-.042.021-.063.042l-.021.021-.021.021c-.021,0-.021.021-.042.021h0a.045.045,0,0,0-.042.042h0l-.021.021a.513.513,0,0,0-.147.021H1.2l-.042.042h0c-.021,0-.021.021-.042.042l-.021.021c-.021.021-.042.021-.042.042h0l-.021.021-.021.021h0c-.021.021-.042.021-.063.042a.021.021,0,0,1-.021.021l-.042.042h0l-.021.021h0l-.021.021h0L.819,21.7l-.042.042h0a.021.021,0,0,1-.021.021h0a.021.021,0,0,1-.021.021c0,.021-.021.021-.021.042h0l-.042.042c-.021.021-.021.042-.042.063-.021.042-.063.084-.084.126a.439.439,0,0,1-.084.126.439.439,0,0,1-.084.126c0,.021-.021.021-.021.042h0v.021c0,.021-.021.021-.021.042-.021.042-.042.063-.042.105v.021a1.926,1.926,0,0,0-.189.483c0,.021-.021.063-.021.084L0,23.294v.021H1.134c.021,0,.021,0,.042.021H1.2a.021.021,0,0,1,.021.021h.021a.7.7,0,0,1,.063.126h0v.042h0v.021h0V36.168H2.646a1.52,1.52,0,0,0,1.113-.378,1.519,1.519,0,0,0,.357-1.029V30.686a1.2,1.2,0,0,0,.168.147,3.556,3.556,0,0,0,.588.42,3.89,3.89,0,0,0,.84.336,4.587,4.587,0,0,0,3.024-.252,4.352,4.352,0,0,0,1.512-1.113A5.56,5.56,0,0,0,11.256,28.5a6.688,6.688,0,0,0,.357-2.226,7.042,7.042,0,0,0-.336-2.142M8.631,27.641a2.655,2.655,0,0,1-.525.924,2,2,0,0,1-.756.567,2.247,2.247,0,0,1-.9.189,1.941,1.941,0,0,1-1.008-.252,2.418,2.418,0,0,1-.735-.651,3.265,3.265,0,0,1-.441-.945,4.734,4.734,0,0,1-.126-.756v-.483A5.128,5.128,0,0,1,4.326,25a2.6,2.6,0,0,1,.525-.924,1.831,1.831,0,0,1,.756-.525,2.441,2.441,0,0,1,.882-.168,2.075,2.075,0,0,1,.945.21,1.191,1.191,0,0,1,.273.168,2.359,2.359,0,0,1,.819,1.029,4.075,4.075,0,0,1,.315,1.6,4.649,4.649,0,0,1-.21,1.26" transform="translate(0 -16.511)"/><path class="a" d="M221.866,29.226h-.042a.126.126,0,0,1-.084-.021h-.021a72.682,72.682,0,0,0-.042-.042.021.021,0,0,1-.021-.021h0v-.021h0c-.021-.021-.021-.042-.021-.084h0v-6.93a1.48,1.48,0,0,0-.357-1.029,1.506,1.506,0,0,0-.945-.378H218.8v9.555a1.48,1.48,0,0,0,.357,1.029,1.219,1.219,0,0,0,.588.315.077.077,0,0,1,.063.021h.042c.042,0,.063.021.1.021H220c.084,0,.189.021.294.021h.5c.021,0,.042,0,.042-.021h.021c.042,0,.063-.021.105-.021h.1c.021,0,.021,0,.042-.021h.021c.021,0,.021,0,.042-.021.021,0,.021,0,.042-.021.021,0,.021,0,.042-.021h.021c.021,0,.021,0,.042-.021-.021,0-.021,0-.042.021.021,0,.021,0,.042-.021a.021.021,0,0,0,.021-.021c.021,0,.021-.021.042-.021s.021-.021.042-.021l.042-.021c.021,0,.042-.021.063-.042a.021.021,0,0,0,.021-.021l.021-.021c.021,0,.021-.021.042-.021h0c.021-.021.042-.021.042-.042l.021-.021c.021-.021.042-.021.063-.042s.063-.042.084-.063a.458.458,0,0,1,.105-.084h0l.021-.021.021-.021h0l.042-.042a.021.021,0,0,1,.021-.021l.042-.042h0l.021-.021h0l.021-.021h0l.021-.021h0l.042-.042h0a.021.021,0,0,1,.021-.021h0a.021.021,0,0,1,.021-.021h0c0-.021.021-.021.021-.042h0c.021-.021.021-.042.042-.042.021-.021.021-.042.042-.063.021-.042.063-.084.084-.126.021-.021.021-.042.042-.063s.021-.042.042-.063a.438.438,0,0,1,.084-.126.021.021,0,0,1,.021-.021c0-.021.021-.021.021-.042h0l.021-.042v-.021c0-.021.021-.021.021-.042s.021-.042.021-.063h0a.354.354,0,0,0,.042-.105c.042-.084.063-.147.105-.231,0-.021.021-.042.021-.063h0c0-.021.021-.042.021-.063s0-.021.021-.042c0-.021,0-.021.021-.042l-.084-.105.042-.147Zm-2.226,2.352c.042.021.084.021.126.042-.042-.021-.084-.021-.126-.042m.966-10.836a.3.3,0,0,1,.126.042.225.225,0,0,0-.126-.042" transform="translate(-172.85 -16.353)"/><path class="a" d="M221.34,1.47A1.47,1.47,0,1,1,219.87,0a1.474,1.474,0,0,1,1.47,1.47" transform="translate(-172.534)"/><path class="a" d="M308.137,29.183h-1.176a.045.045,0,0,1-.042-.042c-.021-.021-.021-.042-.042-.063h0a.266.266,0,0,1-.021-.126V24.92a3.41,3.41,0,0,0-.021-.441h0a5.73,5.73,0,0,0-.189-1.281,3.284,3.284,0,0,0-.756-1.344,3.786,3.786,0,0,0-1.407-.9A3.248,3.248,0,0,0,304,20.8a4.92,4.92,0,0,0-.63-.105h0a5.515,5.515,0,0,0-1.659.021h0a5.955,5.955,0,0,0-1.344.378,6.656,6.656,0,0,0-1.029.567,8.063,8.063,0,0,0-.714.609c-.168.189-.315.336-.42.483-.042.063-.084.105-.1.147a.191.191,0,0,0-.063.147v.042l.021.021c.651.777.924,1.113,1.344,1.05a2.566,2.566,0,0,0,.966-.567,5.21,5.21,0,0,1,.651-.4,2.241,2.241,0,0,1,.4-.147h0a.065.065,0,0,0,.042-.021c.1-.021.231-.063.336-.084a.126.126,0,0,0,.084-.021,2.564,2.564,0,0,1,1.3.126h0a1.2,1.2,0,0,1,.147.084h0a1.024,1.024,0,0,1,.273.21h0c.063.084.105.168.168.252,0,.021.021.042.021.063a3.889,3.889,0,0,1,.147,1.05h-.084c-.273,0-.609.021-1.029.042-.4.021-.84.084-1.281.147a7.462,7.462,0,0,0-1.344.357,4.6,4.6,0,0,0-1.239.63,2.715,2.715,0,0,0-.9.987A2.824,2.824,0,0,0,297.7,28.3h0a3.3,3.3,0,0,0,.294,1.407,3.244,3.244,0,0,0,.8,1.05,3.614,3.614,0,0,0,1.155.63,4.093,4.093,0,0,0,1.344.21,3.66,3.66,0,0,0,1.239-.189,3.313,3.313,0,0,0,.9-.462,3.693,3.693,0,0,0,.588-.546,1.336,1.336,0,0,0,.336.819,1,1,0,0,0,.4.252h.021a.4.4,0,0,0,.168.042.077.077,0,0,1,.063.021h.021c.042,0,.063.021.105.021h.042c.084,0,.189.021.294.021h.5c.021,0,.042,0,.042-.021h.021c.042,0,.063-.021.1-.021h.168c.021,0,.021,0,.042-.021.021,0,.021,0,.042-.021.021,0,.021,0,.042-.021h.021c.021,0,.021,0,.042-.021-.021,0-.021,0-.042.021.021,0,.021,0,.042-.021a.021.021,0,0,0,.021-.021c.021,0,.021-.021.042-.021s.021-.021.042-.021l.042-.021c.021,0,.042-.021.063-.042a.021.021,0,0,0,.021-.021l.021-.021a.073.073,0,0,1,.042-.021h0c.021-.021.042-.021.042-.042h.021c.021-.021.042-.021.063-.042s.063-.042.084-.063a.46.46,0,0,1,.105-.084h0l.021-.021.021-.021h0l.042-.042a.021.021,0,0,1,.021-.021l.042-.042h0l.021-.021h0l.021-.021h0l.021-.021.042-.042h0a.021.021,0,0,1,.021-.021h0a.021.021,0,0,1,.021-.021c0-.021.021-.021.021-.042v-.021h0c.021-.021.021-.042.042-.042.021-.021.021-.042.042-.063.021-.042.063-.084.084-.126.021-.021.021-.042.042-.063h0v-.021a3.783,3.783,0,0,0,.441-.966l.063-.21Zm-4.116-2.331a2.625,2.625,0,0,1-.168.882,1.027,1.027,0,0,1-.063.147h0a3.014,3.014,0,0,1-.4.651,2.226,2.226,0,0,1-.672.588,1.932,1.932,0,0,1-.84.231,1.7,1.7,0,0,1-.777-.168,1.213,1.213,0,0,1-.441-.42,1.018,1.018,0,0,1-.147-.546,1.078,1.078,0,0,1,.126-.525c.021-.021.042-.063.063-.084a1.5,1.5,0,0,1,.525-.42,3.75,3.75,0,0,1,.777-.252,6.858,6.858,0,0,1,.882-.126c.273-.021.525-.021.756-.021H304v.063Z" transform="translate(-235.181 -16.31)"/><g transform="translate(12.957 0.063)"><path class="a" d="M72.137,29.183H70.982a.045.045,0,0,1-.042-.042c-.021-.021-.021-.042-.042-.063h0a.266.266,0,0,1-.021-.126V24.92a3.41,3.41,0,0,0-.021-.441h0a5.73,5.73,0,0,0-.189-1.281,3.284,3.284,0,0,0-.756-1.344,3.787,3.787,0,0,0-1.407-.9,3.246,3.246,0,0,0-.483-.147,4.919,4.919,0,0,0-.63-.105h0a5.515,5.515,0,0,0-1.659.021h0a5.955,5.955,0,0,0-1.344.378,5.56,5.56,0,0,0-1.008.567,8.061,8.061,0,0,0-.714.609c-.168.189-.315.336-.42.483-.042.063-.084.105-.105.147a.191.191,0,0,0-.063.147v.042l.021.021c.651.777.924,1.113,1.344,1.05a2.566,2.566,0,0,0,.966-.567,5.212,5.212,0,0,1,.651-.4,2.239,2.239,0,0,1,.4-.147h0a.065.065,0,0,0,.042-.021c.1-.021.231-.063.336-.084a.126.126,0,0,0,.084-.021,2.564,2.564,0,0,1,1.3.126h0a1.2,1.2,0,0,1,.147.084h0a1.025,1.025,0,0,1,.273.21h0c.063.084.105.168.168.252,0,.021.021.042.021.063a3.891,3.891,0,0,1,.147,1.05h-.126c-.273,0-.609.021-1.029.042-.4.021-.84.084-1.281.147a7.462,7.462,0,0,0-1.344.357,4.6,4.6,0,0,0-1.239.63,2.715,2.715,0,0,0-.9.987A2.824,2.824,0,0,0,61.7,28.3h0a3.3,3.3,0,0,0,.294,1.407,3.245,3.245,0,0,0,.8,1.05,3.615,3.615,0,0,0,1.155.63,4.094,4.094,0,0,0,1.344.21,3.66,3.66,0,0,0,1.239-.189,3.313,3.313,0,0,0,.9-.462,3.692,3.692,0,0,0,.588-.546,1.336,1.336,0,0,0,.336.819,1,1,0,0,0,.4.252h.021a.4.4,0,0,0,.168.042.077.077,0,0,1,.063.021h.021c.042,0,.063.021.105.021h.042c.084,0,.189.021.294.021h.5c.021,0,.042,0,.042-.021h.021a.91.91,0,0,1,.105-.021h.168c.021,0,.021,0,.042-.021.021,0,.021,0,.042-.021.021,0,.021,0,.042-.021h.021c.021,0,.021,0,.042-.021-.021,0-.021,0-.042.021.021,0,.021,0,.042-.021a.021.021,0,0,0,.021-.021c.021,0,.021-.021.042-.021s.021-.021.042-.021l.042-.021c.021,0,.042-.021.063-.042l.021-.021.021-.021c.021,0,.021-.021.042-.021h0c.021-.021.042-.021.042-.042h.021c.021-.021.042-.021.063-.042s.063-.042.084-.063a.458.458,0,0,1,.105-.084h0l.021-.021.021-.021h0l.042-.042a.021.021,0,0,1,.021-.021l.042-.042h0l.021-.021h0l.021-.021h0l.021-.021.042-.042h0a.021.021,0,0,1,.021-.021h0l.021-.021c0-.021.021-.021.021-.042v-.021h0c.021-.021.021-.042.042-.042.021-.021.021-.042.042-.063.021-.042.063-.084.084-.126.021-.021.021-.042.042-.063h0v-.021a3.781,3.781,0,0,0,.441-.966l.063-.21Zm-4.116-2.331a2.624,2.624,0,0,1-.168.882,1.024,1.024,0,0,1-.063.147h0a3.015,3.015,0,0,1-.4.651,2.227,2.227,0,0,1-.672.588,1.932,1.932,0,0,1-.84.231,1.7,1.7,0,0,1-.777-.168,1.213,1.213,0,0,1-.441-.42,1.017,1.017,0,0,1-.147-.546,1.079,1.079,0,0,1,.126-.525c.021-.021.042-.063.063-.084a1.5,1.5,0,0,1,.525-.42,3.75,3.75,0,0,1,.777-.252,6.858,6.858,0,0,1,.882-.126c.273-.021.525-.021.756-.021H68v.063Z" transform="translate(-61.7 -16.373)"/><path class="a" d="M80.02.384l-.063.189c-.042.147-.084.273-.126.4-.273.861-.336,1.071-.693,1.323a.3.3,0,0,0-.126.042,3.245,3.245,0,0,1-1.428.168h-.021a4.86,4.86,0,0,0-.987.126h0a5.792,5.792,0,0,0-.567.168h-.063l-.021.021a1.447,1.447,0,0,1-.168.063l-.357.168.147-.378A4.132,4.132,0,0,1,76.7.972a2.251,2.251,0,0,1,.924-.5h.021A7.363,7.363,0,0,1,78.7.321,3.882,3.882,0,0,1,79.18.3a2.412,2.412,0,0,1,.4.021c.105,0,.168.021.21.021h.063Z" transform="translate(-72.523 -0.3)"/></g><path class="a" d="M177.155,31.42c-.021,0-.021,0-.042.021-.021,0-.063.021-.084.021m4.116-10.941a3.723,3.723,0,0,0-3.129,1.428V21.8a1.376,1.376,0,0,0-.357-.924,1.491,1.491,0,0,0-.294-.21.3.3,0,0,0-.126-.042c-.021,0-.042-.021-.084-.021-.021,0-.021,0-.042-.021h-.021c-.021,0-.021,0-.042-.021-.021,0-.042,0-.042-.021-.042,0-.063-.021-.105-.021h-.042a1.291,1.291,0,0,0-.294-.021h-.5c-.021,0-.042,0-.042.021H176c-.042,0-.063.021-.1.021h-.105c-.021,0-.021,0-.042.021h-.021a.065.065,0,0,0-.042.021c-.021,0-.021.021-.042.021s-.021,0-.042.021a.021.021,0,0,0-.021.021h-.021c-.021,0-.021,0-.042.021a.021.021,0,0,0-.021.021c-.021,0-.021.021-.042.021s-.021.021-.042.021l-.042.021c-.021.021-.042.021-.063.042l-.021.021-.021.021c-.021,0-.021.021-.042.021-.021.021-.042.021-.042.042a.109.109,0,0,1-.084.042c-.021.021-.063.042-.084.063-.042.021-.063.063-.105.084h0l-.021.021-.021.021h0l-.042.042-.021.021-.042.042h0l-.021.021h0l-.021.021h0l-.021.021-.042.042h0l-.021.021h0a.021.021,0,0,1-.021.021c-.021.021-.021.021-.021.042v.021h0l-.042.042c-.021.021-.021.042-.042.063-.021.042-.063.084-.084.126a21676.238,21676.238,0,0,0-.168.252.073.073,0,0,1-.021.042v.021c0,.021-.021.021-.021.042-.021.042-.042.063-.042.105v.021c-.063.147-.126.315-.189.483,0,.021-.021.063-.021.084l-.063.189v.021h1.092a.191.191,0,0,1,.147.063l.021.021v.021h0a.073.073,0,0,1,.021.042h0V23.1h0v8.358h1.533a1.064,1.064,0,0,0,.273-.042c.021,0,.063-.021.084-.021s.021,0,.042-.021a1.188,1.188,0,0,0,.5-.294,1.519,1.519,0,0,0,.357-1.029V26.947a3.636,3.636,0,0,1,.063-.672,4.584,4.584,0,0,1,.168-.756,3.413,3.413,0,0,1,.441-.924,2.423,2.423,0,0,1,.63-.609,3.1,3.1,0,0,1,1.239-.42,1.247,1.247,0,0,0,1.05-1.239V20.521h-.42Z" transform="translate(-137.38 -16.195)"/></svg>