<svg xmlns="http://www.w3.org/2000/svg" width="1285.628" height="824.145" viewBox="0 0 1285.628 824.145"><defs><style>.a,.b,.c{fill:#bcbdc1;}.a,.b{font-size:11px;font-weight:500;}.a{font-family:WorkSans-Medium, Work Sans;}.b{font-family:Raleway-Medium, Raleway;}</style></defs><g transform="translate(-312.372 -3368.027)"><text class="a" transform="translate(1548 3835)"><tspan x="0" y="0">OCEANO</tspan><tspan x="0" y="16">PACIFICO</tspan></text><text class="b" transform="translate(1163 3997)"><tspan x="0" y="0">OCEANO</tspan><tspan x="0" y="16">INDICO</tspan></text><text class="b" transform="translate(751 3853)"><tspan x="0" y="0">OCEANO</tspan><tspan x="0" y="16">ATLÂNTICO</tspan></text><text class="b" transform="translate(998 3739)"><tspan x="0" y="0">OCEANO</tspan><tspan x="0" y="16">ATLÂNTICO</tspan></text><text class="b" transform="translate(975 3389)"><tspan x="0" y="0">OCEANO</tspan><tspan x="0" y="16">ARTICO</tspan></text><text class="b" transform="translate(961 4173)"><tspan x="0" y="0">OCEANO</tspan><tspan x="0" y="16">ANTÁRTICO</tspan></text><path class="c" d="M828.4,177.643l4.7,9.12-3.316,4.146-3.869-.553-.829,7.462-4.422,3.869-9.4-4.975.276-4.422-2.487-2.211-4.975,1.935-2.487-1.105.276-5.251h-3.317L798,189.527l2.487,3.593-7.462,5.8h-5.527l1.658,3.316L793.3,203.9l-.276,4.146,3.869,5.8-3.593,3.869-5.251-5.8-23.215,18.793-1.658,4.422-3.869-2.764-3.04-2.211-6.633,3.869-9.12-.276-4.146-3.869,3.593-4.146,2.487-12.437-4.146,1.382-1.382,7.462-8.844,6.357L724.2,220.2l-8.291,1.658-10.5,16.582-7.739,1.382-30.677-2.487-28.743,31.23,7.738,1.935.553,6.08,3.316-1.105.553-4.146h5.527l3.869,9.673,1.658-1.105.829-4.7,2.211-5.251,3.04,1.382-.553,14.1,6.633,17.135-2.211.829-3.316-4.146-2.764,2.487v6.357l3.316,6.633-1.658,1.382-1.658-1.935H663.4v6.08l-2.487-.553,1.658-15.477-.829-16.306-2.487-.553-3.316,4.422-.276,12.16-9.4,15.477L633,333.517l-5.8-3.316-7.186,7.186-1.658,7.462-6.909,2.764.553,3.593-4.975,5.527-4.7,1.105-1.658-2.487,2.211-6.633-3.869-2.764-4.975,3.04-4.7,3.316-1.382-3.04,3.593-4.422-2.487-2.764-7.186,8.568-8.291-1.105-.829,4.146,8.568,2.764-.276,2.764,4.975-3.593,8.015,1.382-1.935,4.7h-4.7l-4.7,8.015,8.568,13.542-6.08,3.04,1.935,2.487,4.7,2.487-2.211,8.015-15.753,17.688-23.215,6.909,1.935,5.527-3.04,5.527-4.7-.553-.553-4.146,3.593-1.382-2.487-5.8-6.909,1.382-5.251,7.462,5.527,7.186,4.975,6.357,1.105,14.648-12.713,8.568-18.241-16.306-3.04,14.648,4.146,3.869-1.106,4.146-1.658,2.211-6.909-5.8L507.8,455.4l-4.975-15.477-5.8,4.146-4.422-.553,1.382-6.357-7.186-10.5-1.382-7.186-16.03,3.04-2.487,5.527-6.909,3.04-9.673,10.5-9.12,2.487,1.382,8.291-2.211,11.331-6.633,8.015-15.753-29.3-1.935-14.1,2.764-5.8-2.487-2.487-5.8,6.909-8.291-7.738-6.633-12.16-14.1,1.382L362.708,406.2l-1.382-6.909-4.422.829-1.382,4.7-9.12-3.04L337,390.174l-7.462-.829-2.487,3.593L341.427,406.2l-1.382,6.08,10.226.829,6.633-6.357,3.317.553,2.487,6.633,5.8.829,3.316,4.975-5.8,7.738-16.582,11.331-7.186,1.658L339.216,446l-24.874,8.568L309.92,444.9l.276-6.909-12.16-13.266-.276-9.4-8.015-4.7-1.935-7.462-5.527-7.738-2.211,1.106-2.211-12.16,2.211-1.105,2.211-7.462,4.422-4.7-1.105-9.12-4.7-1.105-1.382,2.487-5.251,1.105-3.04-3.869-4.975.276-1.382,2.487-4.7.276-.276-2.764-2.764.276-3.869-5.251-.553-5.251-2.211-1.935,1.382-4.146h2.487l3.869,1.382,7.186-5.251,3.869,1.382,5.528-4.7h8.291l6.909,3.316,15.477-.276,1.382-4.7,31.507,6.08,2.764,3.593-5.527,11.884,10.5,6.357h9.12V350.376l-4.146-6.633,4.146-4.146-6.08-7.462-5.8-6.909,4.146-5.251h3.316l.276-7.186-8.568-2.211-7.186-14.924,8.015-10.5h25.7l9.673-34.823L371,237.063l1.658-45.325,21.834-23.215v-8.568l6.909,5.8,3.316-4.7-9.12-8.844-.553-16.03,5.8-4.422,2.764-14.648,9.12-.553,4.146,4.7-1.935,9.4-2.764,3.316,4.146,3.593-1.382,22.663,3.593,5.527-6.356,14.1-6.357,1.658.276,1.935,9.949,2.211,7.739-14.924-2.211-4.975,1.382-4.7,5.527-1.658,2.764,2.487.553,4.7,2.487.276v-6.909l-4.975-3.869-8.568,2.487-1.105-10.226,2.487-8.015-4.146-8.015,1.658-4.975,4.146-2.487-.553-6.357-1.935-3.593,3.317-2.487,3.869,9.12-1.658,6.357-1.935,2.211L426,134.8l9.673,3.593v-2.764l-6.633-3.593,1.382-5.527,5.8,1.935-4.146-4.975,1.935-4.7,6.08,1.935L447,129.554l2.764,12.437,3.593,6.357,2.764-4.146-3.593-7.738-1.106-11.055-6.633-5.251-.829-11.884,17.411-2.487,5.8,2.487,3.04-.829L462.2,96.389l13.819-15.753,12.99-2.487V73.726h6.909v-3.04l4.975-.553v4.146l3.316.829,1.382-3.593,5.251-.829,1.105-3.04H517.2l-1.105-8.291,9.12-11.055,11.608,3.593-7.462,6.633,4.146,1.382,5.8-.553.829,2.764-3.316,4.422,1.935,3.04,4.146-5.8,11.608.829,8.568,11.055-1.105,11.884-13.266,10.5-.276,2.764-8.291,6.633-5.527,2.487-.276,5.251,3.317.276,17.135-9.673,25.7,2.487-.829,5.251,14.648,1.658,1.935-9.12,9.673,2.211,1.658,3.869,1.658-4.422,8.015,5.8v5.8l-2.211,12.713,9.12,10.779,4.146-12.99,7.462,3.04,19.346-1.935V126.79l-2.764-3.593,2.764-3.593,3.593.553v-3.593l32.612,8.568-1.105,5.8,7.738,4.146,1.382,4.975,12.16-3.316,14.1,3.316v10.779l6.909,3.04,17.964-.553,3.869-5.251,6.633,1.935-3.593,5.251h-4.7l9.12,4.422L764,157.467l-.829-10.226,23.215,3.316L815.407,173.5v8.291l3.869.829v-7.462Z" transform="translate(753.633 3452.663)"/><path class="c" d="M458.937,78.5l3.04,4.146-2.487,3.593-8.291-.829L448.987,87.9l-1.382-1.382L446.5,82.369l4.422-3.869Z" transform="translate(1099.326 3505.928)"/><path class="c" d="M455.7,234.411,454.32,238l-2.764-1.106-2.211,2.211V242.7H445.2l.553-5.8,4.7-4.7Z" transform="translate(1097.033 3777.014)"/><path class="c" d="M459.852,272.642,457.917,279l-3.869-.276-.276,4.422-3.317,3.869.829,3.316-3.593.276-1.658-3.317,1.658-1.658-.829-3.04-4.422-1.105v-3.869l2.487.829,1.105-5.527-3.593-6.08-3.04-3.869.553-3.869,5.527,3.593,1.382,5.8,4.422,4.7,3.593.553,2.764-2.211Z" transform="translate(1086.803 3824.458)"/><path class="c" d="M456.826,270.635l1.382,4.975-4.975,5.251.829,3.04-5.251,1.105-3.869,9.4h-1.935v3.869l-3.04,1.106-3.593-2.211-4.422-.553-.553-4.7,4.975-5.8,10.779-6.909-1.105-3.317,3.04-1.106.276-4.7,3.593-1.382v3.04Z" transform="translate(1072.693 3841.39)"/><path class="c" d="M439.368,232.964l-.276,7.186-2.764.276-5.251-4.7-.276-4.146,2.487-1.382.276,3.316,2.487,2.211.553-3.869Z" transform="translate(1071.635 3773.486)"/><path class="c" d="M437.926,243.628l1.105,2.211L437.1,247.5l-4.975-1.658-4.422-6.08,1.935-1.658,5.527,4.975Z" transform="translate(1066.168 3787.42)"/><path class="c" d="M447.377,117.869l-3.04,5.251-3.869,4.422.553,5.8,4.146,7.738-2.211,3.04-3.317.553,1.382,9.4-7.462,1.935v6.357l-5.251,1.658-1.658,7.186-7.186,4.146L416.7,143.3l4.146-7.462,10.5-8.568L443.232,114Z" transform="translate(1046.766 3568.54)"/><path class="c" d="M432.226,229.809l-1.382,1.935-4.7,2.487-2.764-1.935,3.04-1.382L422,228.151l.829-3.04,3.593,1.382-.276-1.658,2.764-1.935.553,3.869-.276,1.658Z" transform="translate(1056.113 3760.611)"/><path class="c" d="M428.186,224.516l-2.211,1.935L421,223.135l.829-1.935Z" transform="translate(1054.35 3757.612)"/><path class="c" d="M425.033,227.486l-1.658,1.935-4.975-3.869.553-5.251,2.764.276-.276,3.593Z" transform="translate(1049.764 3756.025)"/><path class="c" d="M422.033,222.269l-1.382,4.7-5.251-5.251.276-3.316Z" transform="translate(1044.473 3752.674)"/><path class="c" d="M420.627,139.911l-2.211,3.04-3.316-1.106,2.764-4.146Z" transform="translate(1043.943 3610.341)"/><path class="c" d="M504.279,289.166l1.658,3.317-4.422,17.411-3.04,1.382-5.8,15.753.553,5.251h-5.251l-6.909,4.7-4.7-1.658v-3.869l-3.869,1.658-1.658,3.869-12.99-3.869-1.658-11.331-4.146,3.593h-6.633l.276-3.04,5.8-.829,1.382-4.146-4.422-5.8-5.8,8.844v.276l-2.764-6.08-4.146-3.04v-3.04l-5.8-.829-4.146-2.764-16.859,4.422-6.08,2.487-2.487,3.04-14.1-.276-7.462,6.08-9.673-3.316V313.21l3.04-.276L373,305.2l-8.844-21v-3.04l-1.658-6.08,4.146-2.764-.829-4.7,11.608-6.08,14.924-4.975,1.935-6.909,3.04-2.764,2.211,2.487,2.487-2.487.829-5.251,7.186-4.975,5.527,1.935,1.106,4.7,6.08-1.935,3.593-10.226,3.04,1.105,3.316-2.764,12.99,1.105v4.146l-4.146,5.8,16.306,11.331,4.975-5.251V231.68l4.975-6.08,1.935,6.633,1.935,1.382v6.633l4.975.553.829,6.909,3.04.553v9.12l6.909,2.211,3.869,5.251,1.382,4.7,11.055,9.949Z" transform="translate(951.172 3765.373)"/><path class="c" d="M424.711,219.011l-3.04,4.146-7.186,3.593-7.186-3.593.829-2.211,8.015.829,6.08-4.975h.276Z" transform="translate(1030.188 3749.852)"/><path class="c" d="M418.32,216.511l-1.382,2.211-3.593-1.658-4.146.276.553-2.764,4.422-.276Z" transform="translate(1033.539 3745.442)"/><path class="c" d="M414.316,143.7l.553,1.382-3.316,3.04L411,145.358Z" transform="translate(1036.713 3620.923)"/><path class="c" d="M456.028,244.812l1.658,3.316-3.316,2.487-3.04-2.211-6.909-.553-5.251-8.015-8.291.829-.829,3.04-9.673-.276-3.316-3.316-6.357,1.935-1.105-4.422,3.869-1.382-1.935-5.8-14.1-4.422h-4.7l-3.316-4.422,2.487-1.935L385,216.622l1.658-4.422,10.779,2.211.829,6.633,5.251,1.658,5.527-5.8,29.019,10.226,3.316,1.382.829,3.869,1.105,4.975,8.015,6.909Z" transform="translate(990.855 3741.739)"/><path class="c" d="M421.559,66.957,418.795,71.1h-5.527l-5.251-4.146L404.7,66.4l1.382-5.8,2.211,2.764.553-1.658,3.316.553.276,2.764L414.1,63.64l3.593.276Z" transform="translate(1025.602 3474.356)"/><path class="c" d="M414.638,145.8l.553,2.487-7.738,4.422-.553-3.869Z" transform="translate(1029.48 3624.626)"/><path class="c" d="M417.124,267.6l1.106,6.909-2.211,8.844-2.487,1.658h-4.7l-3.317-5.8V276.72l-3.316-2.211,1.658-1.935,1.935-.553,3.593,1.658,4.975-1.382,1.106-4.7Z" transform="translate(1021.191 3839.45)"/><path class="c" d="M410.351,214.1l-.276,2.764H405.1l1.382-2.764Z" transform="translate(1026.307 3745.09)"/><path class="c" d="M440.851,148.982l-1.382,6.633-4.975,2.487-3.317.553L429.52,162.8l-6.357-3.04-2.764.829,5.8,12.437-4.422,6.08L420.4,193.754l-7.186,1.935h-5.527l-5.251,5.8-4.146-2.211-5.251,3.869h-2.211l-.276-3.869h-3.04l-2.211-3.316,7.462-4.975,9.12.553,4.7-6.357,9.12-4.7,2.764-11.331-3.04-10.779,7.186-3.593.553-7.186,1.935.276,2.487.276,7.186,4.7Z" transform="translate(991.385 3627.802)"/><path class="c" d="M423.73,66.749l-2.211,8.568-3.593-1.382-.553,2.764L412.952,77.8l-2.487-2.211L403,78.357l-3.316.553L392.5,72.553l2.487-4.975-.553-3.593,4.7-7.186,5.8,3.316.553,4.146,1.935.553.553-4.975,2.764-1.658,4.422,3.593L413.5,65.091l.276,2.764,2.487-.829V64.815l2.487-2.487Z" transform="translate(1004.084 3467.654)"/><path class="c" d="M408.931,72.646l-1.658,4.975-5.8-1.105-2.211-1.935L397.6,70.987l4.146-2.487,4.146.553.553,2.487Z" transform="translate(1013.078 3488.29)"/><path class="c" d="M401.675,66.6l.276,3.316-4.146,1.935-1.106-3.04,1.935-2.211Z" transform="translate(1011.492 3484.939)"/><path class="c" d="M392.735,66.8l2.764,3.04-.829,2.211-2.211-.553L390.8,67.629Z" transform="translate(1001.086 3485.292)"/><path class="c" d="M393.187,58.7l1.935,4.975-2.487,3.869L390.7,66.438l.276-7.738Z" transform="translate(1000.908 3471.006)"/><path class="c" d="M392.769,218.9l-.553,5.8-3.317-.276,1.105-5.527Z" transform="translate(997.734 3753.556)"/><path class="c" d="M389.7,222.658l-1.935,3.316L385,225.422,388.04,221Z" transform="translate(990.855 3757.26)"/><path class="c" d="M391.038,168.417l1.106,6.357-2.764,6.357h-5.251l-.276-5.8-.553-6.633,4.422-2.764,1.106-.829Z" transform="translate(987.857 3658.667)"/><path class="c" d="M396.288,216.405l1.382,3.316-2.487.829-3.593-1.658-6.633,2.764-4.7-1.106-1.658-3.04,3.04-1.382,3.316,1.382,6.08-2.211Z" transform="translate(979.568 3747.207)"/><path class="c" d="M387.475,222.053l-.276,1.935h-3.869L382.5,221.5Z" transform="translate(986.447 3758.142)"/><path class="c" d="M390.279,162.875l.553,10.779-10.226,4.422L379.5,163.427l4.975-5.527Z" transform="translate(981.156 3645.968)"/><path class="c" d="M385.7,208.8l1.935,7.186-3.317,1.382,1.935,1.935v5.251l-4.7,1.658-.553-2.764,1.382-2.211-1.658-1.105-.829-2.764,2.211-1.105v-5.527Z" transform="translate(981.861 3735.742)"/><path class="c" d="M383.717,222l.829,2.211-3.593.829-.553-2.487Z" transform="translate(982.742 3759.023)"/><path class="c" d="M384.367,200.3l2.764,5.251-2.764,1.106H381.88l1.658,4.7-1.658,1.935-6.08-6.357,1.658-3.04Z" transform="translate(974.629 3720.75)"/><path class="c" d="M388.453,200.433l.553,7.462-7.462,4.422-5.251-1.935L372.7,200.157l4.422-2.487,1.658,2.487-1.658,1.658,4.975,3.317,1.935-4.7-2.487-1.658-1.935-2.764V193.8H383.2Z" transform="translate(969.162 3709.286)"/><path class="c" d="M392.686,211.787l-4.7,4.7-11.331-1.105-1.935,4.7,4.146-.553,5.8-1.105.553,3.316-6.357,1.105.553,2.487,1.105,4.7,4.7,1.105v5.8l-5.527-.829L375,225.33l-1.658,1.105,3.593,10.5-1.382,2.211L370.3,230.3v-9.949l1.658-6.633,4.975-1.935,9.949.829,3.04-3.316Z" transform="translate(964.93 3736.624)"/><path class="c" d="M417.471,226.057l2.487,2.764-26.808,2.764-8.291-2.211H372.975L368,226.057h-5.527l-9.673-3.04,4.975-2.487,10.779,1.382,3.04-2.211,10.779,4.422,7.186,3.04Z" transform="translate(934.063 3754.967)"/><path class="c" d="M380.12,179.705l-3.316,5.8-.553,5.527-4.146-1.105L371,184.957l4.7-6.357Z" transform="translate(966.164 3682.478)"/><path class="c" d="M379.291,187.8l.829,9.12-2.487-.553L375.7,198.3l4.422,4.422-5.251,4.975L371,199.96l2.211-12.16Z" transform="translate(966.164 3698.704)"/><path class="c" d="M393.281,209.833l-6.357,5.8,1.935,15.2-5.527,3.04v8.015h-5.8l-1.382-3.04-6.633.829-7.738-2.487v-4.422l-3.04-1.935L356.8,223.1l3.593-3.04,4.975,2.487,1.382-5.8h6.08L384.714,203.2Z" transform="translate(941.119 3725.866)"/><path class="c" d="M367.586,66.958l-1.106,5.527-5.251-1.935-.829-2.764,1.935-2.487Z" transform="translate(947.469 3482.646)"/><path class="c" d="M361.315,45.758l-1.935,3.869h-3.593L353.3,47.693l1.382-1.935,1.935-1.658.553,2.211Z" transform="translate(934.945 3445.255)"/><path class="c" d="M379.3,231.737l.829,13.819-4.975,1.658-11.331-9.12-9.4-17.135-9.673-7.186L338.4,207.14l1.935-3.04,3.869,3.04h4.146L359.4,218.471l12.99,7.186,1.382,3.04Z" transform="translate(908.666 3727.452)"/><path class="c" d="M360.1,42l5.527,7.738-.829,6.909-7.462,3.316-3.04-.276-8.291,5.251L344.9,61.344l6.909-22.386L355.4,37.3l1.382,5.527Z" transform="translate(920.131 3433.262)"/><path class="c" d="M358.189,217.071l5.527,6.909-3.593.829-10.5-7.738-3.04-11.055-1.382-1.105,1.658-2.211,11.055,5.8Z" transform="translate(920.66 3724.983)"/><path class="c" d="M356.041,34.487l4.422,5.251-3.04,2.487,1.382,4.422-2.211,1.935,1.382,3.316L356.87,57.15l-6.08.829-1.382-2.487-6.357-.829L337.8,47.477V39.738l5.251-5.527L350.79,32l1.382,3.869Z" transform="translate(907.607 3423.914)"/><path class="c" d="M346.146,54.505l-1.382,1.105v2.764L342,58.1V55.335l1.105-1.935h1.382Z" transform="translate(915.016 3461.658)"/><path class="c" d="M356.133,32.3l1.935,4.975L355.3,38.93l1.382,5.8-8.844,1.658-4.422,4.7-3.869-1.382-2.487-3.04L334.3,45.286l1.382-3.869,2.764-.276,2.211-2.487-2.211-5.527,2.764-5.8h4.146l1.658-3.869,3.869-.553,3.317,8.015Z" transform="translate(902.773 3407.864)"/><path class="c" d="M345.38,52.053l-1.658,3.04-4.422.276V53.158h2.487l1.382-1.658Z" transform="translate(910.254 3458.307)"/><path class="c" d="M343.746,53.9l-.553,3.316L339.6,56.111V53.9Z" transform="translate(910.783 3462.54)"/><path class="c" d="M343.249,35.158l-3.869,5.527-4.146.553-1.935-.829,1.382-3.869V33.5l4.422.553Z" transform="translate(899.67 3426.56)"/><path class="c" d="M338.28,23.3l1.935,1.935L339.109,28l-4.7-.276L332.2,25.787l.829-2.487Z" transform="translate(897.73 3408.569)"/><path class="c" d="M326.175,61.782l-1.105,4.975-3.04-1.105L321.2,63.44l2.487-3.04Z" transform="translate(878.33 3474.004)"/><path class="c" d="M316.126,72.74l-2.211,3.316h-5.8L305.9,74.122l2.211-4.146,5.251-.276Z" transform="translate(851.344 3490.406)"/><path class="c" d="M436.35,261.353l.553,6.909-7.738,16.859L411.2,300.6l-14.924,18.517,1.658,21.557,2.211,17.411-6.909,7.738-5.251,1.105-7.462,9.12,2.487,12.437-2.211,5.527-9.12,2.764.553,8.015-7.462,8.015v5.8l-14.648,11.884L332.987,431.6l-5.527,3.04L321.1,431.6l-1.105-5.8,1.105-4.7-4.422-4.975.276-5.251-7.186-7.738-1.105-19.07L298.44,366.1l3.593-17.688,4.7-1.658.276-13.266-19.9-25.7,4.422-15.753-3.593-4.975-8.568,1.658-4.146-3.04-.829-3.04-4.975-2.487-20.452,6.08-12.713-2.211-6.357,4.7L209.171,276l-1.105-4.7-12.437-11.608,1.105-6.357,2.764-11.884-1.935-11.884-2.764-.829,8.015-16.582.276-4.146,4.975-3.593v-3.869l13.819-7.738v-9.673l10.5-8.291,1.658-6.08,2.487-1.106h.276l1.935,3.04,11.331-.553,10.779-6.08h26.255l2.764-3.869,3.869,3.869,1.382,6.08-4.7,5.527,10.779,6.08,3.316-1.105,6.633,2.211,1.658,4.422,4.7.276,3.593,1.382,2.211,2.211,4.422-1.935-1.105-4.975,6.08-4.422,5.251,1.105,1.105,3.04h5.8l3.317,2.487,5.8-.553,4.975,3.317,1.935-.276,1.382-2.764,7.738-.829,3.869,2.764,2.211-1.106,2.211,12.16-2.487,1.382,6.08,14.924,1.106,2.487,4.975,6.909,1.935,11.608,6.357,4.7,1.658,8.568,11.331,10.226-1.934,3.316,7.462,3.869Z" transform="translate(655.395 3650.024)"/><path class="c" d="M297.121,232.351l1.105,9.12-3.316,4.146L288,269.938l-3.316,6.909-6.08,1.935-4.422-2.764L272.8,271.6l.829-2.487-.829-6.357,3.316-8.844-2.487-4.975,3.04-5.8,5.251-.553,5.527-4.7.829-4.422,3.317-1.105.553-4.422,2.487-.829Z" transform="translate(792.965 3768.019)"/><path class="c" d="M283.455,90.911l2.764,4.422-1.658,3.316-4.975,3.04-4.422-.553.829-6.357-3.593-4.7,2.764-1.382,2.764,1.935Z" transform="translate(792.26 3523.918)"/><path class="c" d="M265.609,165.082l-1.382,2.764-3.593.829-1.935-1.658.553-2.487,4.146-.829Z" transform="translate(768.096 3656.198)"/><path class="c" d="M232.2,154.5l1.658,4.146-.829,4.7-3.04,1.382-1.382.553-1.105-6.357,1.382-3.593,2.211-.553Z" transform="translate(713.068 3639.972)"/><path class="c" d="M231.669,152.382l.829,3.316-2.487,2.764L227.8,157.08v-4.146L231.116,151Z" transform="translate(713.598 3633.799)"/><path class="c" d="M226.809,155.8l1.382,1.935-3.593.276-.829,2.764h-1.935l-1.935-2.487,2.211-2.211Z" transform="translate(699.664 3642.264)"/><path class="c" d="M220.311,157.576l1.106,1.382-1.382,1.935-1.935-1.382.276-2.211Z" transform="translate(696.488 3644.91)"/><path class="c" d="M335.2,51.882l3.04,4.975-6.08,8.844-1.658-.829-3.04,1.382,1.382,3.316-.553,3.04H324.7l-.553,2.487-1.935.553-1.935-1.105-2.764-.276V76.2l-2.487,1.382-1.935-.829-3.04.276-2.764,2.487,1.105,1.382,1.658,3.04-2.211,1.382,2.211,7.462,4.7-5.251,5.8,1.382-2.764,6.357-6.357,1.658-1.658,13.819-6.909,21.281,12.713,7.738-4.422,6.633-6.633-1.105-3.04,6.357,8.568,6.08,1.106,9.12L305.906,181.5l3.593,9.4-7.738,3.04-8.015-3.869-3.317,14.924,15.753,9.949L304.8,227.655h-5.527l-2.764-8.568H289.6l1.382,4.7-10.5,5.527,1.658,5.527,11.331-5.8,8.568,4.7L288.771,247l-15.2,4.975-7.462-.829-5.251,14.371-8.291,7.186-8.844,2.764L235.155,281l2.487,11.608-4.975,8.844L228.8,318.858l-6.08-1.382-3.316-5.8-4.975,1.105-10.779-12.713-5.527-10.226-1.105-9.673-4.975-13.819-1.382-7.738,3.869-9.12,6.633-1.382-.553-6.633,3.04-8.015-1.935.276-.553-3.04.829-2.211-6.08-6.909,2.487-3.593-4.975-5.527-2.764,5.251-3.593,2.764-3.869-4.146,4.7-8.291-2.487-7.462-1.935-17.412L173.8,170.446l.829-6.08-18.517-9.949-1.382,3.593-4.7,1.382-3.317-3.869-1.935,3.04h-4.422l-5.251-4.975,1.382-3.869-6.633-1.658,1.105-6.909h5.8l9.949-1.382v-3.316l-3.04-3.316-4.146,3.316h-5.251l-2.487-3.316v-2.487l-4.422,1.382-3.869-6.357v-6.357l12.99-5.8,3.316-3.869,6.909-1.105,4.7-7.738-.829-8.015,4.7-2.487-1.105-2.211-5.251,2.764L144.5,90.3l-1.658-2.211.276-4.975,10.5-14.371,3.04-1.105.553-2.487,3.317-.276,2.764,3.04,2.211-1.106V59.62L163.3,52.158l4.146-3.869,3.593,1.105,1.105,6.08,3.04.829,4.975,6.357,1.105-2.487-3.04-5.251-1.935-.553-4.146-7.186,2.211-4.422,12.99-5.527,2.764,9.4-.553,9.673,3.316.829V45.525h2.211l4.975,5.251L201.99,56.3l2.211.276.829-3.593-3.869-3.04.553-1.105,2.764.276,1.935-1.105-4.975-8.291-.276-6.633,6.08-.553,1.935,4.975L218.3,44.7l2.764,7.462,3.316-1.658-2.764-3.316,2.211-2.211-.553-5.251,1.935-2.487,4.975,4.422,1.105-1.935-5.251-4.975-4.975-7.462,1.935-2.764,8.844,1.935-.276,4.422,2.487,1.658.276-4.146,2.764,2.487,1.658,6.08,2.211-.553-.553-8.568-7.462-4.975L226.035,21.2l-4.146-2.487-1.105-4.146,3.316-1.658,1.935,2.211,1.935-.829-1.935-2.211,2.764-1.935,6.357,6.357,3.04,4.146,3.04-.553,2.487,5.251,2.211-.553-1.658-3.869-.829-3.316,3.593-1.935,3.593-.829-.276-1.935-3.869.276-2.764-1.658L244,7.109l6.357-3.869L259.476.2l17.412.553,10.226,1.105L289.324,6l1.105,4.146-2.764,3.04-4.422.829-1.935-2.764-6.357.829-4.7,3.316h-2.487l-2.487-2.211L263.068,14.3,265,17.059l-5.8,3.04,3.04,2.211,3.316-2.487h4.7l4.146-4.146,5.8-.829.829,2.211,4.7.276,3.316-2.211,2.487-1.382,1.658.829.553,3.593-1.935,3.316-2.211.829.276,2.211,3.593-.829,1.382-2.487L299,22.586l.553,2.211,5.527,1.935,1.658,5.251-3.316,2.487-1.935,4.146-4.422-.276-4.146,2.211L281.586,40l-3.869,2.211-3.04-3.869h-3.593l-.829,2.211,3.04,1.105,1.382,1.935L263.9,49.671l-.553,4.7,3.316.553,1.105-3.869L279.375,45.8l11.608.829.276,5.251-7.738,6.633.276,1.935,2.487.276,10.226-9.949.276-5.251,6.08-1.658.553,10.5L302.313,61l-4.146,7.462-4.146,6.357-.553,2.764,1.105,2.764,3.316-2.487,1.935-6.909,6.357-8.568.829-5.527,2.764-.829.276,4.146,1.935-.276V57.133l2.487-.276,2.487,2.487L318.9,56.3V50.5l3.869-2.211h6.357Z" transform="translate(529.641 3367.827)"/><path class="c" d="M343.855,52.953l2.487,7.462L337.5,67.6,318.981,77.826l-.829,5.251-7.738,8.568-10.5,21.281-1.106,10.226,7.462,11.055-8.291,1.105-6.909-1.935-8.568-10.5,1.935-5.251h4.422l.553-11.055,4.146-3.316-.553-5.8,6.909-8.844.276-6.909,12.16-14.371,6.633-3.869,2.764.829,10.5-2.764,8.291-9.12Z" transform="translate(810.072 3459.894)"/><path class="c" d="M475.269,103.868v8.568l-21.833,23.215-1.658,45.325,7.738,13.266-9.673,34.823h-25.7l-8.015,10.5,7.186,14.924-11.331,9.4v12.16l7.186,9.673-31.507-6.08-14.371-11.884-10.5,2.211-2.764,1.935h-3.593l.829-3.04-3.869-.829,1.105-2.764,5.8-1.105,3.317,1.935,8.568-2.764,1.935-4.7,5.527-3.04-1.105-3.04-6.909,3.04-2.211,2.211-5.251.276-4.146,2.211-6.357.829-4.7-3.593-4.422,6.08.276,3.04-4.7,3.04-.829,5.251-1.935,1.106,1.382,7.186-6.909,3.316-7.738-1.658-4.146,4.7,3.593,8.291,5.8,2.487,1.382,3.04-5.251.553-4.7-5.251-.829.829,2.487,3.869-1.935,4.422-6.357-3.593-.276-5.251-6.633-8.291v-9.4l-8.291-4.975-2.487-1.382-10.779-11.331-3.593.553.553,4.975,4.146,4.146.829,5.251,3.869,2.764,4.7-.276.553,3.869,3.593.276,4.146,4.146-1.382,2.764-1.935-2.487-3.04-.276,1.382,4.7-2.764,5.251-3.869.553v5.8h-2.487l-7.738-5.527,1.382-1.935,6.633,1.382.829-2.211,3.316-.276,1.106-5.527-11.884-7.186L276,276.6,274.9,271.35l-6.357-2.211L267.16,271.9l-7.186,4.422-6.909-2.764-3.316,1.658.553,6.909-4.7,2.764-4.146-.276-.553,3.593-3.869,3.317.829,5.251-1.658,1.382-.276,3.316-5.251,3.04-7.186.276-3.316,1.106-1.658,1.658-3.04-3.316-8.015-.276-.829-5.8-1.658-1.105v-4.146l1.935-2.487V277.983L204.7,276.6l.829-2.487H209.4l.553-1.935,3.869.276,1.105,1.106,12.16.276,4.975.829,1.382-2.764L234,260.019l-4.146-3.869-.276-2.211-3.593-1.382-5.527-2.487v-3.317l7.186-1.105,6.08,2.211-1.382-2.764-4.146-2.211,3.593-1.382L234,240.4l2.487,2.211,3.593-.553,3.593-3.316-.276-2.764,2.487-2.487h1.935l7.738-8.568,1.382-4.7H260.8l1.935-1.658h8.015l-.553-5.527,3.04-2.487,5.8,5.527,5.8-3.04,2.211-.276h1.382l.553,4.422,4.7-1.105,6.357-4.146,4.7-.276,1.658,3.04,6.357-5.251-.276-9.673,3.04-5.527,1.935-.553,1.105-.276,4.975,4.422,1.935-.553-1.382-7.186h-4.975l-2.211,1.935-1.658-1.658,2.764-6.909,10.226-3.316,8.844,1.658,4.422-3.593-3.04-3.869L330.726,176l-9.673,4.146L318.013,176l-4.146-2.487,1.658-6.633-2.764-8.015,2.487-5.251,2.487-1.382,2.487-5.527,3.04-.553,5.8-7.738-1.935-4.422-8.844-.829-4.146,7.462.829,3.869L310,150.852l-5.251,2.211-4.146,7.462-.829,11.331L305.023,176l-.276,6.357-2.764,3.593-2.487.829-.553,7.186-.276,2.764-4.422,7.186-7.738,4.422-3.869-3.316,1.935-3.869-5.251-8.844-1.935-3.317.276-6.357-10.5,9.4-5.8-2.211L258.04,186.5l-.276-24.321,12.99-11.608L276,151.4l2.764-1.658-4.975-4.422L285.677,130.4l8.568-18.793h-5.8l-3.04,2.487-1.658-1.382,2.764-3.04,6.909-1.658-3.593-2.211,2.764-4.146,4.422-.553,2.487,2.487-.276-4.975,6.633-4.146.829-5.251,2.211-.829,4.422,1.658,10.226-8.568,8.015-1.382,1.658,3.316,3.593-2.487,10.226,5.251,1.658,3.593L345.1,93.366l4.975,2.487,1.382-3.04,5.251,2.487.829,4.975h6.909l20.728,16.582,1.106,6.08-6.357,6.357-6.357,1.106-7.462-2.487-12.713-7.462-2.764.276,4.975,5.527,6.08,2.764,1.382,6.633-.829,8.568,4.146,1.105,3.593,4.7,3.316-1.935,1.106-3.316L370.8,143.39l-1.935-4.422.829-1.658h3.869l2.211,3.869,4.975,1.382,1.382-2.764-3.04-4.975,9.12-8.844,6.633,2.764,1.382-7.462-1.935-2.764.276-2.211,4.422.553,3.317,6.633,4.422-.553,2.211-7.462,12.16-8.568,10.226-3.593-2.211,4.7,1.105,2.764,4.422-3.04,7.739-1.105,3.593-4.146,3.869,1.382-1.382,5.8,3.317.276,4.422-6.633-4.422-6.633-5.527-3.869,2.487-5.527,7.462,7.462,8.844.553Z" transform="translate(672.855 3508.749)"/><path class="c" d="M308.02,24.453V29.98L304.427,34.4l-5.251.829L298.9,29.98l4.422-1.935-.553-2.211,1.658-1.935Z" transform="translate(838.998 3409.627)"/><path class="c" d="M303.5,27.529l.276,4.7-3.593,3.316-4.7-.276L293,31.675l1.658-4.975,3.593.829Z" transform="translate(828.592 3414.566)"/><path class="c" d="M293.116,20l3.869,6.08-3.316.829L289.8,24.975V21.658Z" transform="translate(822.949 3402.749)"/><path class="c" d="M298.655,30.753l1.382,3.869-2.487.553L297,37.938,295.062,39.6l-1.935-1.658-1.106,1.935-3.316.276L287.6,37.662l.829-3.869h3.593l.829-2.487,1.935-1.105Z" transform="translate(819.068 3420.739)"/><path class="c" d="M302.053,29,300.4,30.657l-1.106,3.869-2.764-1.382-.829-2.487-5.251,3.04-3.316.276-.829-4.146,1.935-.553-1.382-2.487,2.764-2.487,2.211,2.487,1.658-2.211,3.317.276Z" transform="translate(816.775 3410.333)"/><path class="c" d="M295.77,29.693l-1.382,4.975-4.422.276L288.86,38.26h-2.211l-2.487,5.527-3.869.276.553-3.593-3.04,1.382L276.7,40.471l4.146-5.527,3.04.276,3.317-2.487-.829-2.211L288.86,26.1Z" transform="translate(799.844 3413.508)"/><path class="c" d="M285.033,86.3l2.764,3.316-1.105,3.869-4.422.829L278.4,91l2.211-4.7Z" transform="translate(802.842 3519.685)"/><path class="c" d="M284.079,25.5l1.382,2.211-.276,2.487-3.04-.553-3.317,3.869-5.527.276V30.475l4.7-2.211,2.211-2.764Z" transform="translate(793.848 3412.45)"/><path class="c" d="M264.186,30.9l1.935,1.935L263.08,35.6l-5.527.276L257,33.94l4.422-.553Z" transform="translate(765.098 3421.974)"/><path class="c" d="M259.886,41.205l-.276,2.764-3.316-1.382-2.487,1.935L252.7,42.311l2.764-2.211Z" transform="translate(757.514 3438.2)"/><path class="c" d="M252.887,41.2l1.935,3.869-2.764.553L250.4,42.029Z" transform="translate(753.457 3440.14)"/><path class="c" d="M271.63,36.662l.553,6.08-4.422,3.316-1.935,6.909-2.211-.276-1.935,2.764h-4.7l-1.658-3.04h-6.08l-2.487-3.04,3.04-2.764,4.146-.276.829-2.211-4.146-1.105-4.146,2.764h-4.975l-1.106-4.7,3.04-.829.553-1.105L240.4,37.215V32.24h4.146V29.753l4.422-.553.829,4.975,3.593,2.487h1.382l.829-6.08,3.317.553,1.382,5.527,3.316-1.935Z" transform="translate(735.82 3418.976)"/><path class="c" d="M258.8,57.071l-.829,3.593-7.462,5.251L249.4,63.152l-4.975-.829.276-3.593,3.04-2.211-1.658-4.7.276-2.487L243.6,48.78V46.293l5.527-3.593,1.382,4.7-1.105,3.04H253v3.869l1.382,2.764Z" transform="translate(741.465 3442.786)"/><path class="c" d="M269.945,57.1l-3.593,3.04L261.1,62.348l.553,6.08L260,71.469v3.869l-2.487,6.08-3.593-.276-5.8-1.658V77l5.8-3.04L250.6,72.021l-4.146,2.764L241.479,77l-1.935-2.211.553-4.422h3.316l6.08-3.593,4.7-.553.829-2.211-6.909-.276-.276-6.08-2.211.276-.829,8.291-5.8,1.658L232.911,53.5,230.7,43l1.935-4.975h4.975l1.382,5.251,4.146,1.382-.553-4.146,1.658-3.04,3.869,3.316.553,8.015,3.04-.276-.553-7.186-3.593-4.975,2.764-3.869,4.975,4.975.553,3.316,3.869,3.593,3.593,9.4,3.869.553Z" transform="translate(718.711 3424.796)"/><path class="c" d="M247.286,121.582l-3.04,2.764.276,4.146h-3.593l-.829-4.975,4.7-3.316Z" transform="translate(735.291 3579.476)"/><path class="c" d="M246.684,51.158l1.382,11.055-1.382,3.869-4.422-1.935L240.6,58.62l-5.8-4.146.829-3.869L240.88,49.5Z" transform="translate(725.943 3454.779)"/><path class="c" d="M236.349,125.546l1.382,3.593-1.105,4.7-2.764,1.105-4.422,1.935-3.04-8.015,4.146-4.422,3.04-3.04h3.869Z" transform="translate(711.127 3581.592)"/><path class="c" d="M236.814,155.181l-1.658,8.568-7.738,4.422h-6.08l-9.949,3.316-.553-4.422,3.04-3.593-1.382-2.487,2.764-4.422,1.106-3.869,3.593-1.382-1.658-6.633-4.7-.829L211.94,139.7l-3.04-6.08V124.5l3.593-5.8,6.633.553-2.211,6.357,3.316-1.658,4.422,1.382-4.422,7.738.553,3.593,4.146,1.935.553,4.146,4.7,2.764,1.935,9.12Z" transform="translate(680.262 3576.83)"/><path class="c" d="M218.646,114.635l-.276,6.08-2.764.553-1.105-4.422,2.211-4.146Z" transform="translate(690.139 3566.247)"/><path class="c" d="M218.357,116.6l-1.935,4.422L212,119.087l2.211-2.211Z" transform="translate(685.73 3573.126)"/><path class="c" d="M220.435,131.675l1.105,1.935-2.764,2.487v8.844l-6.633,3.593-6.357,1.382-2.487-3.869,4.422-4.7-3.317-2.487-.553-4.422,1.935-2.487,4.422,1.935v-2.764l3.316-4.422,4.422.829Z" transform="translate(670.385 3590.939)"/><path class="c" d="M211.346,109.453v8.015h-1.935l-2.211-6.08,1.382-2.487Z" transform="translate(677.264 3559.545)"/><path class="c" d="M223.263,103.633l1.658,6.633-5.527,5.8-2.764-1.105-5.8,6.08-6.909,2.487-3.593-3.869h-4.7l-2.764-1.382,1.658-2.487-2.211-3.869-4.146.553v-2.211l4.422-1.382.829-3.04-4.975.829-3.04-1.382,3.04-6.08L191.757,97l4.975,1.658,1.105,4.975,1.935.829,2.487-2.487,6.909-3.316,9.4-.276Z" transform="translate(638.814 3538.557)"/><path class="c" d="M202.422,173.1l-.276,1.658-3.04,2.211L198,175.311l2.211-2.211Z" transform="translate(661.037 3672.777)"/><path class="c" d="M201,174.529v3.04h-5.251l-.553-2.211,2.764-1.658,1.106,1.658Z" transform="translate(656.1 3673.835)"/><path class="c" d="M205.324,29.329l1.382,2.487-4.146,3.869-10.226-1.658h-.276l-1.658-3.04,2.211-1.658,4.975.276,2.211.553.829-1.658Z" transform="translate(647.633 3417.741)"/><path class="c" d="M196.493,174.9v4.146h-2.764l-.829-2.487Z" transform="translate(652.043 3675.951)"/><path class="c" d="M194.987,173l1.658,2.764-2.487,1.105-1.658-1.105Z" transform="translate(651.338 3672.601)"/><path class="c" d="M275.46,258.813l2.211,13.266-8.568,8.844-2.487,4.975-4.422,2.764v12.99l-9.949,22.386h-9.12l-14.371,9.673.276,10.5-19.9,28.743h-8.568l-6.909-6.08L193.1,371.3l6.909,8.844-4.146,6.909-9.949,3.04-6.909-3.04L180.111,397l-4.146,3.593-5.527-2.211-.553,18.517-7.738,5.251.276,6.08,5.527,1.935-.829,5.8-6.633,4.422.276,6.357-4.422,1.658,2.764,10.5v6.909l9.4,6.08h4.975l-.829,2.211-13.266,5.251-14.371-8.291-11.884-18.517-1.658-18.517,5.251-3.869-3.04-3.317,2.211-5.527,6.08-5.251.829-11.884-2.487.276-1.382,6.357-3.593.276,2.211-14.371,4.146-4.975-1.935-8.844,6.909-19.9V345.318l3.869-16.859.553-21.557-5.8-5.527-16.306-9.12.276-4.975-11.608-21.557-5.251-5.527,1.105-6.909,2.764-1.106-3.869-3.316,4.146-11.884,3.593-.829,1.935-4.422,3.04-.829.276-14.648-3.04-3.593,2.487-4.146,3.593,2.211,4.146-5.8,1.382-4.7,13.819-4.422.829,3.04-5.8,3.593,5.527,7.186.829-4.7,3.316-4.7H158l1.105,3.04,12.99.553,1.105-3.869,11.884,1.658v9.12l3.593-.829,8.844,9.12h14.371l8.015,8.015,4.422,13.266,16.03,4.422,4.7,4.7h14.1l11.331,9.4Z" transform="translate(510.063 3712.813)"/><path class="c" d="M160.6,86.775l.553,3.04-5.527.829-3.869-3.869L146.5,84.84l2.487-3.04,5.251,1.658Z" transform="translate(570.205 3511.748)"/><path class="c" d="M154.262,144.182v5.527l-3.593,1.382-3.869-3.869,4.422-4.422Z" transform="translate(570.734 3619.336)"/><path class="c" d="M156.677,143.744l3.316,3.316-.553,7.462-5.251,4.7h-2.764l1.106-3.04H141.753l-.553-4.422,2.764-6.633,3.04-1.935,2.211-5.527,4.975-2.764.553,2.487-2.487,1.382-1.658,3.316,2.211,3.869Z" transform="translate(560.857 3605.402)"/><path class="c" d="M151.8,143.8l3.316,4.7-5.251,5.8-7.462,1.105-2.211,5.527-4.7,1.935-3.593-2.211.829-4.146,5.251-2.764,2.211-8.015,6.08-1.935-.829,4.7,1.658.553,1.382-2.487Z" transform="translate(544.455 3621.1)"/><path class="c" d="M142.069,194.2l.276,2.764-2.764.553-1.382-1.382,2.211-1.935Z" transform="translate(555.566 3709.991)"/><path class="c" d="M140.916,192.029l-.276,4.422-3.04-1.106v-2.764l2.211-1.382Z" transform="translate(554.508 3704.701)"/><path class="c" d="M142.062,138.753l3.593,3.869-2.211,2.211-5.251-1.658-3.593-3.593.553-1.382Z" transform="translate(549.217 3611.223)"/><path class="c" d="M199.636,140.681l3.04,4.7-.829,2.764h-3.04l-1.382,6.909-3.04.829v3.04l-4.422-.829-2.211-6.633-5.251-5.527-1.658,2.211.829,2.487-2.487.276-1.935-2.487-1.106,1.382-3.869-1.382,1.382-1.658-5.251-7.186-.553-.829-5.8-1.658-3.04-10.779-4.146,1.658-4.422-3.593-3.316.276-.553-1.935,3.04-1.935,2.211-.276-6.909-5.251-1.382-5.8-4.146,3.869-5.527-1.382-4.975,1.935-3.04-.829.276-.829H115.342l-4.7.829-.829-1.658,4.7-.553-1.382-1.935-6.08.553-4.7-4.7-.553-3.869,3.869,1.105,3.593-.829-.276-1.658,4.975-5.251,4.422,4.146,2.487-1.935-.276-2.211-4.7-2.487L115.066,89l2.211-1.658,2.764-.553L117,84.3l-1.658-3.316.553-1.658,2.211-4.975,6.909-5.251h4.422l3.593,6.909-.553,3.869,2.487,1.382L133.03,84.3l-1.382,1.105.829,5.8,2.487,1.382.553-6.633,1.658-1.935,3.869,4.146,1.382,5.251,1.382-4.975-2.487-3.593,3.04-2.764,6.633,1.105,1.935,2.764v1.658l-4.146,1.658-.553,3.869,3.316.829,1.658-3.593L156.246,89l.829,2.764-2.211,5.8,2.211,1.382,1.105-3.593,1.658-.829v4.146l-.829,2.487h.829l1.935-3.04V94.25l3.869,2.487v4.975l-3.04,4.975,4.422,3.04v-5.8l1.935-2.211,4.7,1.105,3.593,3.869-.553,2.764-3.593.829-1.382,3.869,3.316-.829,1.658-2.211L179.185,110l2.764,1.935-.553,4.422-3.04-.276-.553,1.382-6.633,1.105,3.317,3.04,2.764-2.764,3.593-.829,2.487,2.487-3.869,1.935-.276,3.316,6.357,8.015,3.869-1.382,3.04,2.764V139.3l3.04,3.04Z" transform="translate(491.367 3489.349)"/><path class="c" d="M205,21.906l3.317,4.7-1.658,5.8-8.015,9.673-6.08.553-1.382,2.487-5.8,1.105.829,2.487-3.316,3.316-6.357,4.146,1.382,1.935,4.146-.553,7.738-6.909,3.316-2.764h3.593V52.86l-5.251,3.869-4.7,5.527-5.251,7.186-.553,1.658-1.105,2.764-3.593,2.487-3.593-1.935-1.382,2.211,4.975,3.316-1.935,2.487,1.105,3.593-5.8,4.146-.553-3.316-3.316-3.316-4.975-.553L158.3,84.643l2.211,1.935,4.7,1.658v3.593l-7.738,2.211.276,1.382,4.146.553v3.316l-2.487,1.658-4.422-2.211-2.211-2.764-3.316,1.105L148.9,100.4l-1.382,3.593,2.211,2.487,1.382-2.764,3.04-2.764,4.975,2.487,1.106,5.251-2.487.829.829,1.935v2.487l-2.764,1.658-2.487,3.869H148.9l1.658,3.869-.829,4.975-4.975,1.935-1.935-3.316-2.211-2.211L138.4,126.1l-4.7-1.935.829-6.08-3.04-.553-.276,4.975-3.593,3.04-2.764,1.382-1.935-3.593-.553-4.422,2.211-3.316-1.658-1.106-2.487,2.764-3.316-1.382-1.935-3.593,3.869-7.462,7.738-.829,6.909,2.764,4.975-1.382-.553-4.146-4.422.553-6.357-.829-1.658-6.357-2.764-6.909-3.869-4.146V73.311l10.226,3.869,3.869,8.568L137.016,91l2.487-2.487-.553-6.08-4.422-.276-2.764-7.462,11.055-3.04,4.975-.829,1.658-3.869,4.422-4.146-3.593-.553-1.105-3.316,1.658-4.7-2.487-1.382-5.527,4.146.553,4.146-4.146,6.633-7.186,3.04-1.658-1.106,3.04-4.422H129.83L127.9,68.89l-4.975,1.658-3.593-1.658.829-4.422h-1.382l-.553-2.487,6.08-6.08-1.382-2.211-6.909,5.527-5.527-.553L106.615,60.6l-1.105-1.382,3.04-4.975,5.8-4.146-3.593-1.382L104.4,52.031,102.746,50.1l4.975-5.8-3.316-.829-1.382,2.764-3.593.553L98.6,43.74l4.422-5.8,5.8-.276,5.251-3.869,8.291,3.04L123.2,34.9l-4.7-2.487.553-3.316,3.869-.276-1.935-4.975,4.422-.553,12.713,8.844,3.04,8.291,4.7-.553-3.869-8.291-9.673-7.186,2.211-4.146,2.764-3.04,7.186,2.487.829-2.487L139.227,15l1.935-4.146,6.909.829,4.7,2.487,1.382,4.975,1.935,3.869,2.764-5.8-3.593-4.422L152.769,10.3V8.364l8.291-.553,3.04,8.568,3.869,3.869,2.764-4.146-3.593-1.935-2.487-3.316,1.382-3.593,4.7-1.105L169.9,9.746l3.04,2.487,2.487-1.382-2.211-3.04.276-1.935,5.251-.276-.553,4.7,4.146-1.935,7.738,1.382-1.935,4.146-6.357,4.146,1.382,2.487,7.462-4.7,2.764-3.593h2.211l4.975,2.487v4.422l2.487,3.593Z" transform="translate(485.723 3377.351)"/><path class="c" d="M139.769,190.435l-.276,3.317L135.9,193.2l.829-4.7Z" transform="translate(551.51 3699.938)"/><path class="c" d="M140.073,187.2l1.106,1.935-4.422,2.487h-5.527l-.829-2.487Z" transform="translate(541.809 3697.646)"/><path class="c" d="M164.289,122.237l.829,10.779-3.04-.553-4.422-3.04-4.975-4.146-1.935,1.105,1.382,2.211,7.186,5.251,1.658,3.869,4.146,2.211-2.211,2.764-5.251-2.487-1.105-1.382-10.226-5.8h-2.764l-5.527-5.527.276-3.593-4.7-4.7.276-4.146-6.08,3.869-2.211-1.382L122.28,120.3l-4.146-.553-1.935-3.869,1.935-4.146,6.08-1.658,2.764,1.382,4.7-2.764-2.211-4.7,4.975-4.7,1.105-4.7h2.764l3.316,1.106-.829,5.527,3.317,2.211h2.764l3.869,1.382,2.487,3.316,2.487,1.382.829,2.764,1.105,2.211,3.593.553Z" transform="translate(516.764 3534.323)"/><path class="c" d="M140.717,190.9V192l-5.251-1.106-6.357,1.658-6.909-.829,1.935-3.316,2.487-2.211h10.5l3.593,2.764Z" transform="translate(527.348 3695.882)"/><path class="c" d="M126.964,182.8l.276,2.487h-2.211l-.829-1.382,1.105-.829Z" transform="translate(530.875 3689.885)"/><path class="c" d="M124.135,183.5l1.105,2.211-2.211,2.211-.829-1.106v-1.105Z" transform="translate(527.348 3691.12)"/><path class="c" d="M126.533,183.616,125.7,186.1l-4.146-.553-1.658-2.764,1.935-2.487h1.382l.553,2.764Z" transform="translate(523.291 3685.476)"/><path class="c" d="M145.31,193.36l-1.382,2.487L133.15,195.3l-1.105-3.316-3.593-3.04-8.015-1.658-1.935-1.935h-2.764l-1.106,4.146L108,187.28l1.105-2.487,7.462-3.593,11.055,2.487,2.211,1.105,4.146,2.487Z" transform="translate(502.301 3687.063)"/><path class="c" d="M125.844,93.264l.553,4.146-2.211,4.146-4.7-.276L117,97.133l1.935-4.975,3.593-1.658Z" transform="translate(518.176 3527.093)"/><path class="c" d="M124.691,189.911l-1.105,2.764-3.593-1.935H116.4v-2.487l4.422-.553Z" transform="translate(517.117 3698.527)"/><path class="c" d="M126.213,71.364l3.316,8.568-7.462-1.105-6.08-1.658L113.5,69.153l8.015-.553Z" transform="translate(512.002 3488.467)"/><path class="c" d="M120.951,176.076l1.382,4.146-2.487.553-1.658-2.764-1.935.276L115.7,175.8Z" transform="translate(515.883 3677.54)"/><path class="c" d="M119.693,181.187l.829,2.487-2.487.829L116.1,181.74V178.7h3.869Z" transform="translate(516.588 3682.654)"/><path class="c" d="M155.349,230.031l-2.487,4.146-2.211-2.764-5.8,6.633-18.517-10.5.553-4.975-5.8-6.909-9.12.829L99.522,205.433l-4.422-.553,1.382-7.738,11.055-1.658,2.211-5.251.553-5.251,13.542-1.382.276,4.975-2.764,1.382-.553,4.7-3.316,10.226H132.41l4.422,3.593-1.658,15.477,9.4,6.357,5.527-3.316Z" transform="translate(479.549 3691.296)"/><path class="c" d="M143.661,63.659l.829,6.08-4.7,3.593-3.593,3.04-2.764-1.105,1.105-3.04-2.487-.553-5.527.829-.829-1.935h-3.316l-1.106,3.04-4.422.553-3.04-3.869-2.487,2.764-3.316-.553-3.04-3.316-3.316-1.105-.553-3.593h1.382l4.975-5.251,3.316,1.105,1.935-2.211-4.422-2.211-1.935-6.08,4.422-3.04,4.7,2.487V52.88l3.04,4.7h5.527l3.316-3.04h1.935l-.276,4.146,3.316-1.105,5.251.829L139.516,62Z" transform="translate(490.133 3450.017)"/><path class="c" d="M118.393,86.6l1.105,2.211-1.382,5.251h-2.764l-.553-3.317,1.105-3.869Z" transform="translate(514.295 3520.214)"/><path class="c" d="M118.175,112.469l.276.829-1.935,3.04-3.316-2.487,1.382-1.935v-2.764l2.487-.553Z" transform="translate(511.473 3559.016)"/><path class="c" d="M146.547,74.757V78.9l-2.211-.276-.829,1.382,2.487,1.935-1.658,4.7-6.633.829-4.146-1.935-4.146,3.04-15.753-1.935,1.105-2.764-2.211-.829L110.9,86.641H102.88L99.011,76.415l2.487-6.357L98.182,68.4l1.382-3.593L96.8,61.215l2.764-2.764.829.553,1.658-2.211h2.764l1.382-3.316,2.487-.276.553,3.593-.829,2.764,3.316,1.935-.276,3.04-2.211-.276-1.382,1.935,3.316,2.211-.276,3.04,1.658,2.487,5.527-1.658,5.251,2.487,1.105-2.211h3.869l1.658-3.316,9.673.276.553,2.487,2.764-.829Z" transform="translate(482.549 3461.305)"/><path class="c" d="M120.6,182.626v6.08l-4.146.829-6.357-8.844.829-6.08,6.633-2.211Z" transform="translate(506.006 3671.542)"/><path class="c" d="M126.633,112.519l2.764,4.7-2.764,2.487-2.211-1.382-2.487-.276-1.106-.276v-2.487l-3.04-1.935-.553,4.975-2.764,3.04-3.593.829-.276-4.422-3.593,1.382-2.211.276v-2.487l1.382-1.935,1.935-.829V109.2l1.935-2.487-.553-3.593.829-4.422,4.146.553,1.935,5.8,4.422,1.105,3.04,3.869Z" transform="translate(496.658 3541.555)"/><path class="c" d="M125.175,107.11l.829,6.08-6.08,5.251L115.5,121.2l-3.869-1.105-1.105-2.487-4.975.553L105,111.532l1.658-3.869-1.382-5.527,1.382-1.105,2.764,2.764V96.331l3.316-2.211-2.211-1.658-.276-6.909,9.673,1.935L120.2,85l3.04.829-.553,3.316,3.04,1.935-.276,8.291-3.869,2.764Z" transform="translate(497.01 3517.392)"/><path class="c" d="M116.562,111.622v.276l-3.04-.276-.829,2.487-3.593-1.382,1.105-4.146,3.316-1.382,3.04,1.382Z" transform="translate(504.242 3556.547)"/><path class="c" d="M119.417,69.253l.829,1.935L116.1,75.609l-2.487,5.527.276,8.568,1.658,5.251-4.975,5.251L106.427,99.1h-4.146l-1.105-3.316-.276-10.5,3.04-2.487V77.544l4.7-6.909L113.06,68.7Z" transform="translate(489.779 3488.643)"/><path class="c" d="M111.7,26.529l.553,2.487-3.316,3.316h-4.146L102.3,28.187l3.593-2.487Z" transform="translate(492.248 3412.802)"/><path class="c" d="M105.457,51.564l-1.935,5.251L99.1,54.051l.829-5.251Z" transform="translate(486.605 3453.544)"/><path class="c" d="M114.052,68.229v4.146l-3.04,4.422-1.382,4.975-3.04,3.593-5.251-.553.829,5.527L99.4,93.379l-3.593-.829.276-1.658-1.935-5.527L93.6,72.651l4.146-1.105-1.935-2.211L99.127,67.4h6.08l1.382,2.211Z" transform="translate(476.904 3486.35)"/><path class="c" d="M103.679,47.9l.276,6.633-3.316-.553-5.527,1.105L92.9,51.216,98.98,47.9Z" transform="translate(475.67 3451.957)"/><path class="c" d="M103.679,65.68v8.568l-4.422.276L94.282,71.76,92.9,67.891l2.211-1.935-.829-3.04L98.151,59.6Z" transform="translate(475.67 3472.593)"/><path class="c" d="M400.665,222.109l1.105,7.186-5.8,3.593-5.251.553-3.316,5.527-22.939-.553-10.779,9.12-8.291,10.779-.553,2.211,1.935-.553,8.568-9.949,9.12-5.527,5.527.553,1.382,3.04-2.764,2.764-7.186-.276.829,2.211,5.527.276,1.658,4.146-.829,3.04s-1.935,5.251-2.487,5.251a35.227,35.227,0,0,0-3.869,1.105l-1.382,3.869-6.08.829-6.08,6.08.276,7.738L337.1,289.267l-1.935,4.422-6.08,9.949,2.764,6.633-21.557,17.135v6.357l.553,2.211-6.633,1.935-3.593-4.146-4.146,1.658-2.764-3.593-12.99-.276.276,5.8-5.8-.553L266.9,334.04l-14.371,9.949,1.105,6.633-2.487,14.1,6.08,11.884,6.08,3.316-1.382,7.738-1.382-.276-5.251,2.764-29.848-13.819-2.211-6.357-.276-6.909L209.138,349.24l-10.226-12.99-3.04-8.568-6.357-2.764L192,333.487l4.7,3.593.553,5.527,7.186,7.462,3.04,4.422,1.658,7.462-3.869.276-.829-5.251-4.7-3.316-.553-4.422-8.291-4.7,2.211-4.975-5.527-5.251-5.527-16.03-6.357-3.869L158.562,291.2l-2.211-13.819.829-26.255-13.266-13.819v-4.146l12.437,8.568,7.462,11.608.276-6.357-6.633-8.015-13.542-9.4-9.4-13.542-.553-4.422-7.186-.553-15.2-22.386-14.648-9.949L86.152,175.4l-12.16-6.357-8.568-2.211-7.186,5.251-1.658,6.08-8.568,1.382,1.382,2.487,4.975,2.764-3.593,4.7-7.462,5.8-1.935,3.316-11.331,6.909-12.437,7.186-4.422.276-.553-2.764,4.422-1.658,9.12-6.909,12.16-9.12.553-6.633-6.633-1.382-7.738,1.105-2.487-9.673-5.8,5.251-2.487-3.593-1.935-4.146,1.935-1.382-4.7-5.251,3.593-7.462,14.1-6.909.276-10.5-5.527,3.316L7.938,145l-3.593-8.291L.2,134.5l2.487-3.869,14.648-4.7.553,4.7,6.357.553,4.422-3.04-9.673-5.251-2.764-6.08-9.12-5.527,1.935-6.08,9.4-2.487.553-6.357,4.422-5.527,3.316.276,6.08-7.462L35.3,85.58l6.633-6.08,8.291,2.487.276,4.146,2.211-2.764,5.251.829.553,3.869L70.4,87.791l4.7,3.316,5.251-.553,2.211,2.487,7.186-1.658,8.015,5.527,7.738.276,6.633,7.186,3.869-.829V99.675l8.015-2.764L125.95,99.4l.553-3.316,11.884-6.357,4.975,5.251.553-8.568,4.7,3.316,1.382,8.291,1.935,1.935,2.764-8.015,3.04-.276v5.8l-.553,3.04H161.6V96.082h6.633l3.869,4.7,5.527.553,4.975,3.869,4.7-.829,6.633,4.422v3.316l-5.527,2.764,3.869,2.764,11.331-.276,3.869-3.316,5.527,4.146,3.869,10.226,3.04,2.764-1.105-9.12-4.146-5.527,7.738-5.8h3.316l2.764,2.764H231.8l5.251,4.146,4.975-2.487,11.331,2.764.553-3.316-5.527-.829V109.9l4.7-.553,4.975,1.935-.553,9.949,2.487,2.487.829-10.779,2.211-.276,2.487-4.146V104.65l-2.211.553-.276-3.04,2.211-3.04-2.764-1.658,7.738-.276,2.764,2.487,1.382-2.211,4.7,3.04-1.658,3.04.276,7.462,2.211-1.658-1.105-5.527,3.593-3.04,3.869,5.527.829,5.8-2.487,2.211,2.487,4.422,2.487,2.764.276,6.633,2.764,2.764-.276,1.382-.829,3.593-4.422,1.935-4.422-4.975h-4.422l5.527,6.633,2.487-.829.829.276,3.316.829-3.04,8.844-6.357.553-4.422,6.08v3.04l-5.251,1.382-8.291,13.819.276,15.2h5.251l2.764,8.291-.553,3.316,5.527-2.487,6.357,1.658,6.909,6.909,6.08,1.382,2.211,3.04,9.673.276.829,13.819,6.08,8.844,3.869,1.658,3.04-5.251-4.146-15.2,9.949-8.015,1.382-7.738-4.975-7.738-2.764-1.382.276-3.04,3.869-3.316-.553-13.542-3.04-6.633,3.316-3.869,5.251.553,2.764,3.316,3.593-.829,1.382-2.487,8.568,8.015v3.593l6.633,1.658,1.658,11.608,7.186,6.08,5.251-5.8-.553-5.251,4.422-3.04,12.99,23.215L382.7,205.25l4.7,6.357,8.015,2.211.829,2.487-2.764.553-4.7,1.105-5.527,1.105,1.382,4.422,4.975-2.211,4.146-3.04,4.146,1.105Z" transform="translate(312.172 3507.691)"/><path class="c" d="M130.716,60.592l3.316,5.251-2.764,4.975-4.975,2.487-2.211,9.949L122.148,87.4l-4.7,1.935V87.124l-1.382-1.658L114.41,88.23l-6.633-2.764L106.671,82.7l2.764-1.658-1.106-2.487-3.593.829-3.316-6.08,3.593-3.869,3.869-1.105-.553-4.146L106.4,66.12l-4.422,2.211L97,67.225l-1.382-3.869L98.1,62.251l.829-2.764-3.04.829-1.935-.829-1.658-4.7,1.658-2.211,5.527.276,1.935-3.04-1.105-1.935L95.893,50.09l-3.04-.829L92.3,47.05l2.487-2.764-1.935-3.869,3.04-1.382,2.764,2.211h4.7l-.276-3.593-3.04.276-2.211-.553.276-4.7,2.211-2.211,2.764.553.553-3.316-3.316-1.382.553-2.764,3.316-1.658,4.7,4.146,3.04,4.975L115.515,41.8h1.935l2.487,1.105-1.105,4.7,2.487,4.146,2.487-1.935L122.425,46.5l.276-2.487,3.593.829.553,15.753Z" transform="translate(474.611 3406.1)"/><path class="c" d="M107.248,92.253l4.146,4.422-3.869,5.8-7.738.276-4.7-1.106L92.6,96.4l1.935-3.316-1.658-4.975,3.593-6.633L97.575,76.5l3.593.829-.276,2.764,4.975,3.04Z" transform="translate(475.141 3502.399)"/><path class="c" d="M107.5,60.92l-2.764,2.764L101.42,64.79,97,63.684l-4.7-5.527V53.182L97,51.8l4.422,3.04,4.146.553-.829,2.764Z" transform="translate(474.611 3458.836)"/><path class="c" d="M100.349,46.122l5.527,5.8-4.146,4.422-6.909,2.487L92.887,54.69,94.269,52.2,90.4,49.162,92.335,41.7Z" transform="translate(471.26 3441.022)"/><path class="c" d="M102.042,93.568v3.869l-4.422-.553L89.053,95.5,88.5,90.8h4.7l-.829-3.316L94.3,85.276,97.62,85l1.935,6.08Z" transform="translate(467.908 3517.392)"/><path class="c" d="M105.352,82.071v12.99l-3.869,2.764-.829,2.764-3.593,1.105L91.809,90.639l-4.7-2.211L84.9,84.282l.829-3.869,3.593-.276.276,4.422,3.316-.553-.553-6.08-3.316-3.593,4.146-4.975L99,67.7l5.251,2.764-.276,6.08-2.764,1.105-.276,2.764Z" transform="translate(461.559 3486.879)"/><path class="c" d="M104.863,56.035l2.764,11.331-.553,11.055-7.186,1.105-2.764-1.382V72.893l2.764-2.487-1.105-1.935-9.12,4.422-6.08-8.844,1.105-2.211L82.2,56.864l2.487-1.658,3.04,3.316,1.935,5.527,3.593-.553-1.382-3.869,1.382-4.422L99.888,54.1Z" transform="translate(456.797 3462.892)"/><path class="c" d="M94.609,35.14v6.633h-3.04l-1.658-3.04L87.7,37.627,89.358,32.1h3.869Z" transform="translate(466.498 3424.09)"/><path class="c" d="M101.9,56.393l3.869,6.909L101.9,66.9l-3.316-3.316-.829-4.146-5.251-2.487-6.357,2.487-2.764-3.869,1.658-3.593,2.764.829,1.382-2.764-2.764-4.975-5.527.276,1.382-4.7,7.186-3.04,3.04,6.08L94.719,42.3l9.12,6.633Z" transform="translate(454.504 3433.791)"/><path class="c" d="M128.319,110.456v6.08l-4.975-.829-.829,2.211L125,122.064l-3.04,3.316-8.844-1.105-.553-4.146-4.146-1.105-1.658-3.316-1.935,2.211-1.935,5.251-9.12,3.593L83.27,125.1l.829-4.7-9.12-1.382L70,114.325l-.276-3.316,7.186-1.935,10.5,1.935.829-3.593L82.717,105.2l-4.7.553H68.069l-1.658-3.869L68.9,99.677,73.6,98.3,73.32,94.7l-7.462,2.211L64.2,89.728l4.146-2.487-1.658-3.869,12.16-7.738,2.764,4.422,3.04-.553,6.633,3.316.276,1.658,3.04-.553-1.382-4.7,3.04-.553,4.146,6.08.276,10.226H104l-.553-11.055-1.658-9.12h4.7V69.829l4.7-.829,4.422,3.04-3.593,9.4,3.04,13.542v7.462l3.869,3.593Z" transform="translate(425.051 3489.172)"/><path class="c" d="M87.964,47.3l2.211,2.487L85.753,52,85.2,48.406Z" transform="translate(462.088 3450.899)"/><path class="c" d="M85.793,60.7l1.382,3.593-1.382,1.658-2.764-.276L82.2,61.253Z" transform="translate(456.797 3474.533)"/><path class="c" d="M82.235,47.9,89.7,59.231l-2.487.829-5.8-3.316L80.3,49.282Z" transform="translate(453.447 3451.957)"/><path class="c" d="M101.859,67.4l-1.382,10.5L94.95,82.043l-9.4.553-5.527,4.146-6.08,3.593L69.8,86.188l3.04-3.869,6.909-2.487L79.2,77.344l3.04-4.146L89.7,71.817,85.83,66.842l1.935-2.487L85,60.209l.829-4.422L88.041,53.3l3.593,4.975.829,6.08,3.316,3.869,1.935-3.869Z" transform="translate(434.928 3461.481)"/><path class="c" d="M84.666,44.064l.829,5.8-8.844,1.382L71.4,50.144l1.382-3.869,5.251-1.105L79.968,41.3Z" transform="translate(437.75 3440.316)"/><path class="c" d="M83.737,46v3.593l-4.975.276v2.487l3.04-.276.829,4.422L74.064,58.99,71.3,54.015l.829-4.975,4.7-3.04Z" transform="translate(437.572 3448.606)"/><path class="c" d="M85.823,63.415l2.764,6.08-3.04,4.146-8.291,1.382-6.633.276L66.2,71.43v-4.7L69.24,60.1l3.869-4.7,4.975.829,1.106,3.593,2.764-.276Z" transform="translate(428.578 3465.186)"/><path class="c" d="M75.28,54.129l-1.658,2.487L69.2,55.787,70.305,53.3Z" transform="translate(433.869 3461.481)"/><path class="c" d="M73.022,46l1.105,2.211-1.382,4.975L68.6,50.7l1.105-3.593Z" transform="translate(432.811 3448.606)"/><path class="c" d="M84.75,52.364l-1.105,2.211-.829,8.844-4.422,1.935.276,3.869H74.8l-.553-8.291L71.76,62.313l.553,8.015-2.764,3.593L65.4,74.75l-5.8-1.382,1.382-5.8,3.04-2.211,7.462-12.99,4.146-.276,3.04,1.658V50.153l2.211-.553Z" transform="translate(416.938 3454.955)"/><path class="c" d="M85.877,70.575l6.633,7.738L78.139,87.986v4.975L74.27,95.725l-.829,6.357-4.422.553L67.36,106.5H63.768L61,98.765l-5.8-2.211V90.2l2.764-1.105V84.117L61,77.208l-3.316-8.844L72.335,65.6l4.422,7.186,1.105-3.316Z" transform="translate(409.176 3483.176)"/><path class="c" d="M67.622,57.7l1.658,2.764-3.317,6.08L63.2,63.5Z" transform="translate(423.287 3469.241)"/></g></svg>